<svg width="183" height="54" viewBox="0 0 183 54" fill="none" xmlns="http://www.w3.org/2000/svg">
<path d="M28.5 0L35.2279 20.6262H57L39.386 33.3738L46.114 54L28.5 41.2523L10.886 54L17.614 33.3738L0 20.6262H21.7721L28.5 0Z" fill="#893535"/>
<path d="M92.3176 7.02C92.3176 6.46 92.2242 5.94667 92.0376 5.48C91.8509 5.01333 91.5576 4.64667 91.1576 4.38C90.7709 4.1 90.2776 3.96 89.6776 3.96C89.5442 3.96 89.4109 3.96 89.2776 3.96C89.1442 3.94667 89.0109 3.94 88.8776 3.94C88.5442 3.94 88.3309 3.97333 88.2376 4.04C88.1442 4.09333 88.0976 4.30667 88.0976 4.68C88.0976 5.58667 88.0976 6.5 88.0976 7.42C88.0976 8.34 88.1042 9.25333 88.1176 10.16C88.3176 10.3333 88.5509 10.4467 88.8176 10.5C89.0842 10.54 89.3442 10.56 89.5976 10.56C90.2909 10.56 90.8309 10.3933 91.2176 10.06C91.6176 9.71333 91.8976 9.26667 92.0576 8.72C92.2309 8.17333 92.3176 7.60667 92.3176 7.02ZM95.1976 6.96C95.1976 7.84 95.0442 8.56 94.7376 9.12C94.4309 9.66667 94.0109 10.0933 93.4776 10.4C92.9576 10.7067 92.3576 10.92 91.6776 11.04C91.0109 11.1467 90.3042 11.2 89.5576 11.2C89.3176 11.2 89.0776 11.1867 88.8376 11.16C88.5976 11.1333 88.3576 11.1067 88.1176 11.08C88.1176 12.0533 88.1176 13.0267 88.1176 14C88.1176 14.96 88.1176 15.9267 88.1176 16.9C88.1176 17.0067 88.1376 17.12 88.1776 17.24C88.2309 17.36 88.3242 17.42 88.4576 17.42C88.6309 17.42 88.7976 17.4133 88.9576 17.4C89.1309 17.3867 89.3042 17.38 89.4776 17.38C89.5709 17.38 89.6442 17.4333 89.6976 17.54C89.7642 17.6467 89.7976 17.7333 89.7976 17.8C89.7976 17.8933 89.7642 17.9667 89.6976 18.02C89.6309 18.0733 89.5576 18.1 89.4776 18.1C89.3042 18.1 89.1309 18.0933 88.9576 18.08C88.7842 18.0667 88.6042 18.0533 88.4176 18.04C88.1509 18.0133 87.8776 18 87.5976 18C87.3176 18 87.0442 18 86.7776 18C86.1376 18 85.5042 18.02 84.8776 18.06C84.7309 18.0733 84.5842 18.08 84.4376 18.08C84.3042 18.0933 84.1642 18.1 84.0176 18.1C83.8842 18.1 83.7976 18.06 83.7576 17.98C83.7176 17.8867 83.6976 17.7933 83.6976 17.7C83.6976 17.5933 83.7376 17.52 83.8176 17.48C83.8976 17.4267 83.9842 17.4 84.0776 17.4C84.1976 17.4 84.3176 17.4067 84.4376 17.42C84.5576 17.4333 84.6842 17.44 84.8176 17.44C84.8442 17.44 84.8776 17.44 84.9176 17.44C84.9576 17.44 84.9909 17.44 85.0176 17.44C85.2042 17.4267 85.3109 17.32 85.3376 17.12C85.3776 16.92 85.3976 16.7533 85.3976 16.62V4.84C85.3976 4.73333 85.3842 4.58 85.3576 4.38C85.3309 4.16667 85.2376 4.05333 85.0776 4.04C85.0376 4.04 84.9976 4.04 84.9576 4.04C84.9309 4.04 84.9042 4.04 84.8776 4.04C84.7442 4.04 84.6109 4.04667 84.4776 4.06C84.3442 4.07333 84.2109 4.08 84.0776 4.08C83.9842 4.08 83.8909 4.04 83.7976 3.96C83.7176 3.88 83.6776 3.79333 83.6776 3.7C83.6776 3.60667 83.7176 3.52 83.7976 3.44C83.8909 3.36 83.9842 3.32 84.0776 3.32C84.2242 3.32 84.3709 3.32667 84.5176 3.34C84.6776 3.35333 84.8309 3.36667 84.9776 3.38C85.2842 3.39333 85.5842 3.40667 85.8776 3.42C86.1842 3.42 86.4842 3.42 86.7776 3.42C87.3909 3.42 87.9976 3.40667 88.5976 3.38C89.2109 3.34 89.8242 3.32 90.4376 3.32C91.0242 3.32 91.5976 3.38667 92.1576 3.52C92.7309 3.64 93.2442 3.84 93.6976 4.12C94.1509 4.4 94.5109 4.77333 94.7776 5.24C95.0576 5.70667 95.1976 6.28 95.1976 6.96ZM104.358 9.62C104.358 9.75333 104.318 9.88 104.238 10C104.171 10.1067 104.065 10.16 103.918 10.16C103.691 10.16 103.538 10.0667 103.458 9.88C103.378 9.70667 103.291 9.50667 103.198 9.28C103.118 9.04 103.005 8.83333 102.858 8.66C102.725 8.48667 102.531 8.4 102.278 8.4C102.145 8.4 102.018 8.42667 101.898 8.48C101.778 8.53333 101.665 8.6 101.558 8.68C101.131 8.97333 100.785 9.39333 100.518 9.94C100.265 10.4733 100.098 11 100.018 11.52V11.5C100.018 11.9933 100.018 12.4867 100.018 12.98C100.018 13.4733 100.018 13.9667 100.018 14.46V16.92C100.018 17.1467 100.078 17.2933 100.198 17.36C100.331 17.4267 100.485 17.4533 100.658 17.44C100.845 17.4133 101.011 17.4 101.158 17.4C101.345 17.4 101.438 17.5 101.438 17.7C101.438 17.9133 101.331 18.02 101.118 18.02C100.718 18.02 100.318 18.0133 99.918 18C99.518 17.9867 99.118 17.98 98.718 17.98C98.3047 17.98 97.8914 17.9867 97.478 18C97.0647 18.0267 96.6447 18.04 96.218 18.04C96.1247 18.04 96.058 18.0067 96.018 17.94C95.978 17.86 95.958 17.7867 95.958 17.72C95.958 17.52 96.0647 17.42 96.278 17.42C96.4114 17.42 96.538 17.4267 96.658 17.44C96.7914 17.44 96.9247 17.44 97.058 17.44C97.218 17.44 97.3247 17.3867 97.378 17.28C97.4314 17.1733 97.458 17.0533 97.458 16.92C97.458 15.9733 97.458 15.02 97.458 14.06C97.458 13.1 97.458 12.1467 97.458 11.2C97.458 10.9467 97.458 10.6933 97.458 10.44C97.458 10.1867 97.458 9.93333 97.458 9.68C97.458 9.53333 97.4447 9.36 97.418 9.16C97.3914 8.96 97.3314 8.78 97.238 8.62C97.158 8.46 97.018 8.38 96.818 8.38C96.6847 8.38 96.5514 8.4 96.418 8.44C96.298 8.46667 96.1647 8.48 96.018 8.48C95.818 8.48 95.718 8.38 95.718 8.18C95.718 8.03333 95.7914 7.93333 95.938 7.88C96.1247 7.81333 96.318 7.77333 96.518 7.76C96.718 7.73333 96.9114 7.7 97.098 7.66C97.2714 7.62 97.498 7.56667 97.778 7.5C98.058 7.42 98.3314 7.35333 98.598 7.3C98.878 7.23333 99.0914 7.2 99.238 7.2C99.438 7.2 99.5847 7.27333 99.678 7.42C99.718 7.48667 99.758 7.64667 99.798 7.9C99.838 8.14 99.8714 8.38667 99.898 8.64C99.9247 8.89333 99.938 9.07333 99.938 9.18C100.351 8.66 100.811 8.18667 101.318 7.76C101.825 7.33333 102.438 7.12 103.158 7.12C103.345 7.12 103.538 7.16 103.738 7.24C103.951 7.30667 104.085 7.44667 104.138 7.66C104.205 7.91333 104.258 8.24 104.298 8.64C104.338 9.02667 104.358 9.35333 104.358 9.62ZM113.165 12.74C113.165 12.3 113.131 11.8 113.065 11.24C113.011 10.6667 112.891 10.1133 112.705 9.58C112.518 9.04667 112.245 8.60667 111.885 8.26C111.538 7.9 111.065 7.72 110.465 7.72C109.918 7.72 109.478 7.89333 109.145 8.24C108.811 8.58667 108.551 9.02 108.365 9.54C108.191 10.06 108.071 10.6 108.005 11.16C107.938 11.7067 107.905 12.18 107.905 12.58C107.905 13.02 107.931 13.5267 107.985 14.1C108.051 14.66 108.178 15.2067 108.365 15.74C108.551 16.2733 108.825 16.7133 109.185 17.06C109.545 17.4067 110.025 17.58 110.625 17.58C111.185 17.58 111.631 17.4133 111.965 17.08C112.311 16.7333 112.571 16.3067 112.745 15.8C112.918 15.28 113.031 14.7467 113.085 14.2C113.138 13.64 113.165 13.1533 113.165 12.74ZM115.885 12.84C115.885 13.8667 115.651 14.78 115.185 15.58C114.718 16.3667 114.078 16.9867 113.265 17.44C112.465 17.8933 111.551 18.12 110.525 18.12C109.498 18.12 108.591 17.88 107.805 17.4C107.018 16.92 106.398 16.2733 105.945 15.46C105.505 14.6467 105.285 13.7333 105.285 12.72C105.285 11.6667 105.505 10.7267 105.945 9.9C106.385 9.06 107.005 8.4 107.805 7.92C108.605 7.42667 109.538 7.18 110.605 7.18C111.778 7.18 112.751 7.42 113.525 7.9C114.311 8.36667 114.898 9.02667 115.285 9.88C115.685 10.72 115.885 11.7067 115.885 12.84ZM125.227 15.06C125.227 15.6867 125.094 16.2 124.827 16.6C124.56 16.9867 124.207 17.2867 123.767 17.5C123.327 17.7133 122.847 17.86 122.327 17.94C121.82 18.02 121.314 18.06 120.807 18.06C120.474 18.06 120.147 18.0267 119.827 17.96C119.507 17.8933 119.187 17.82 118.867 17.74C118.734 17.7133 118.594 17.6867 118.447 17.66C118.3 17.62 118.154 17.6 118.007 17.6C117.954 17.4133 117.874 17.14 117.767 16.78C117.674 16.4067 117.58 16.0467 117.487 15.7C117.407 15.34 117.367 15.0867 117.367 14.94C117.367 14.7933 117.414 14.7 117.507 14.66C117.6 14.62 117.7 14.6 117.807 14.6C117.967 14.6 118.087 14.66 118.167 14.78C118.367 15.06 118.527 15.3533 118.647 15.66C118.767 15.9667 118.954 16.2533 119.207 16.52C119.394 16.72 119.66 16.9267 120.007 17.14C120.367 17.34 120.687 17.44 120.967 17.44C121.567 17.44 122.014 17.3 122.307 17.02C122.614 16.74 122.767 16.2933 122.767 15.68C122.767 15.2667 122.64 14.92 122.387 14.64C122.134 14.36 121.807 14.1067 121.407 13.88C121.02 13.6533 120.607 13.4333 120.167 13.22C119.727 12.9933 119.307 12.7467 118.907 12.48C118.52 12.2133 118.2 11.8933 117.947 11.52C117.694 11.1333 117.567 10.6667 117.567 10.12C117.567 9.44 117.754 8.88667 118.127 8.46C118.5 8.03333 118.974 7.72 119.547 7.52C120.134 7.32 120.72 7.22 121.307 7.22C121.574 7.22 121.834 7.24 122.087 7.28C122.34 7.32 122.594 7.39333 122.847 7.5C122.967 7.54 123.127 7.59333 123.327 7.66C123.54 7.71333 123.707 7.74 123.827 7.74C124 7.74 124.167 7.72 124.327 7.68C124.354 8.05333 124.394 8.42667 124.447 8.8C124.514 9.17333 124.554 9.54667 124.567 9.92V9.98C124.58 10.1133 124.54 10.2267 124.447 10.32C124.367 10.4 124.267 10.44 124.147 10.44C124.014 10.44 123.914 10.4133 123.847 10.36C123.794 10.3067 123.74 10.2267 123.687 10.12C123.514 9.73333 123.34 9.36667 123.167 9.02C123.007 8.66 122.787 8.36667 122.507 8.14C122.24 7.91333 121.854 7.8 121.347 7.8C120.814 7.8 120.42 8.00667 120.167 8.42C119.914 8.83333 119.787 9.27333 119.787 9.74C119.787 10.1133 119.927 10.4333 120.207 10.7C120.487 10.9667 120.774 11.18 121.067 11.34C121.427 11.5267 121.84 11.7333 122.307 11.96C122.787 12.1867 123.247 12.4467 123.687 12.74C124.127 13.0333 124.494 13.3733 124.787 13.76C125.08 14.1333 125.227 14.5667 125.227 15.06ZM133.273 10.98C133.273 10.7133 133.26 10.3933 133.233 10.02C133.206 9.64667 133.14 9.28667 133.033 8.94C132.94 8.58 132.786 8.28 132.573 8.04C132.36 7.8 132.066 7.68 131.693 7.68C131.333 7.68 131.013 7.8 130.733 8.04C130.466 8.26667 130.24 8.56 130.053 8.92C129.866 9.26667 129.72 9.63333 129.613 10.02C129.506 10.3933 129.426 10.7267 129.373 11.02C129.6 11.02 129.82 11.0267 130.033 11.04C130.26 11.04 130.48 11.04 130.693 11.04C131.56 11.04 132.42 11.02 133.273 10.98ZM136.153 15.4C136.153 15.44 136.14 15.5 136.113 15.58C136.1 15.6467 136.08 15.7 136.053 15.74C135.96 15.9533 135.786 16.2 135.533 16.48C135.28 16.7467 135.053 16.9533 134.853 17.1C133.96 17.78 132.926 18.12 131.753 18.12C130.7 18.12 129.786 17.9 129.013 17.46C128.24 17.0067 127.646 16.38 127.233 15.58C126.82 14.78 126.613 13.86 126.613 12.82C126.613 11.78 126.813 10.84 127.213 10C127.626 9.14667 128.213 8.47333 128.973 7.98C129.746 7.47333 130.673 7.22 131.753 7.22C132.993 7.22 133.986 7.56 134.733 8.24C135.48 8.92 135.853 9.89333 135.853 11.16C135.853 11.5067 135.693 11.68 135.373 11.68C134.786 11.68 134.2 11.6733 133.613 11.66C133.026 11.6467 132.44 11.64 131.853 11.64C131.426 11.64 131 11.64 130.573 11.64C130.146 11.64 129.72 11.6467 129.293 11.66C129.253 12.06 129.233 12.4667 129.233 12.88C129.233 13.2533 129.28 13.6933 129.373 14.2C129.48 14.7067 129.633 15.2 129.833 15.68C130.046 16.16 130.32 16.56 130.653 16.88C130.986 17.1867 131.393 17.34 131.873 17.34C132.473 17.34 132.973 17.2533 133.373 17.08C133.786 16.9067 134.153 16.66 134.473 16.34C134.793 16.02 135.12 15.64 135.453 15.2C135.493 15.1467 135.533 15.1067 135.573 15.08C135.626 15.04 135.686 15.02 135.753 15.02C135.846 15.02 135.933 15.06 136.013 15.14C136.106 15.2067 136.153 15.2933 136.153 15.4ZM145.471 9.62C145.471 9.75333 145.431 9.88 145.351 10C145.285 10.1067 145.178 10.16 145.031 10.16C144.805 10.16 144.651 10.0667 144.571 9.88C144.491 9.70667 144.405 9.50667 144.311 9.28C144.231 9.04 144.118 8.83333 143.971 8.66C143.838 8.48667 143.645 8.4 143.391 8.4C143.258 8.4 143.131 8.42667 143.011 8.48C142.891 8.53333 142.778 8.6 142.671 8.68C142.245 8.97333 141.898 9.39333 141.631 9.94C141.378 10.4733 141.211 11 141.131 11.52V11.5C141.131 11.9933 141.131 12.4867 141.131 12.98C141.131 13.4733 141.131 13.9667 141.131 14.46V16.92C141.131 17.1467 141.191 17.2933 141.311 17.36C141.445 17.4267 141.598 17.4533 141.771 17.44C141.958 17.4133 142.125 17.4 142.271 17.4C142.458 17.4 142.551 17.5 142.551 17.7C142.551 17.9133 142.445 18.02 142.231 18.02C141.831 18.02 141.431 18.0133 141.031 18C140.631 17.9867 140.231 17.98 139.831 17.98C139.418 17.98 139.005 17.9867 138.591 18C138.178 18.0267 137.758 18.04 137.331 18.04C137.238 18.04 137.171 18.0067 137.131 17.94C137.091 17.86 137.071 17.7867 137.071 17.72C137.071 17.52 137.178 17.42 137.391 17.42C137.525 17.42 137.651 17.4267 137.771 17.44C137.905 17.44 138.038 17.44 138.171 17.44C138.331 17.44 138.438 17.3867 138.491 17.28C138.545 17.1733 138.571 17.0533 138.571 16.92C138.571 15.9733 138.571 15.02 138.571 14.06C138.571 13.1 138.571 12.1467 138.571 11.2C138.571 10.9467 138.571 10.6933 138.571 10.44C138.571 10.1867 138.571 9.93333 138.571 9.68C138.571 9.53333 138.558 9.36 138.531 9.16C138.505 8.96 138.445 8.78 138.351 8.62C138.271 8.46 138.131 8.38 137.931 8.38C137.798 8.38 137.665 8.4 137.531 8.44C137.411 8.46667 137.278 8.48 137.131 8.48C136.931 8.48 136.831 8.38 136.831 8.18C136.831 8.03333 136.905 7.93333 137.051 7.88C137.238 7.81333 137.431 7.77333 137.631 7.76C137.831 7.73333 138.025 7.7 138.211 7.66C138.385 7.62 138.611 7.56667 138.891 7.5C139.171 7.42 139.445 7.35333 139.711 7.3C139.991 7.23333 140.205 7.2 140.351 7.2C140.551 7.2 140.698 7.27333 140.791 7.42C140.831 7.48667 140.871 7.64667 140.911 7.9C140.951 8.14 140.985 8.38667 141.011 8.64C141.038 8.89333 141.051 9.07333 141.051 9.18C141.465 8.66 141.925 8.18667 142.431 7.76C142.938 7.33333 143.551 7.12 144.271 7.12C144.458 7.12 144.651 7.16 144.851 7.24C145.065 7.30667 145.198 7.44667 145.251 7.66C145.318 7.91333 145.371 8.24 145.411 8.64C145.451 9.02667 145.471 9.35333 145.471 9.62ZM157.158 7.5C157.158 7.60667 157.118 7.68 157.038 7.72C156.971 7.76 156.885 7.78 156.778 7.78C156.725 7.78 156.665 7.78 156.598 7.78C156.531 7.78 156.485 7.78 156.458 7.78C156.205 7.78 156.025 7.9 155.918 8.14C155.865 8.27333 155.811 8.42 155.758 8.58C155.705 8.74 155.651 8.89333 155.598 9.04C155.105 10.5467 154.598 12.0467 154.078 13.54C153.558 15.02 153.045 16.5133 152.538 18.02L150.058 18.12C149.738 17.1333 149.418 16.1467 149.098 15.16C148.791 14.16 148.478 13.16 148.158 12.16C147.985 11.6133 147.811 11.0667 147.638 10.52C147.478 9.97333 147.305 9.43333 147.118 8.9C146.985 8.56667 146.811 8.38 146.598 8.34C146.398 8.28667 146.145 8.26 145.838 8.26C145.638 8.26 145.538 8.16667 145.538 7.98C145.538 7.87333 145.558 7.8 145.598 7.76C145.638 7.72 145.705 7.69333 145.798 7.68C145.931 7.65333 146.071 7.63333 146.218 7.62C146.378 7.59333 146.525 7.57333 146.658 7.56C146.951 7.52 147.238 7.48 147.518 7.44C147.811 7.38667 148.105 7.34 148.398 7.3C148.491 7.27333 148.578 7.25333 148.658 7.24C148.751 7.22667 148.845 7.22 148.938 7.22C149.125 7.22 149.251 7.30667 149.318 7.48C149.385 7.64 149.438 7.80667 149.478 7.98C149.531 8.15333 149.585 8.32667 149.638 8.5L150.258 10.64C150.565 11.6933 150.871 12.7533 151.178 13.82C151.498 14.8733 151.811 15.9333 152.118 17C152.598 15.5733 153.065 14.1467 153.518 12.72C153.985 11.28 154.378 9.82667 154.698 8.36C154.711 8.29333 154.718 8.23333 154.718 8.18C154.731 8.11333 154.738 8.04667 154.738 7.98C154.738 7.86 154.691 7.79333 154.598 7.78C154.505 7.75333 154.411 7.74 154.318 7.74H153.618C153.511 7.74 153.425 7.72667 153.358 7.7C153.305 7.67333 153.278 7.59333 153.278 7.46C153.278 7.39333 153.305 7.34 153.358 7.3C153.411 7.24667 153.465 7.22 153.518 7.22C153.838 7.22 154.158 7.22667 154.478 7.24C154.798 7.24 155.118 7.24 155.438 7.24C155.678 7.24 155.911 7.23333 156.138 7.22C156.378 7.20667 156.618 7.2 156.858 7.2C156.938 7.2 157.005 7.23333 157.058 7.3C157.125 7.35333 157.158 7.42 157.158 7.5ZM75.7963 46.64C75.7963 46.92 75.683 47.06 75.4563 47.06C74.9763 47.06 74.4963 47.0533 74.0163 47.04C73.5497 47.0267 73.083 47.02 72.6163 47.02C72.163 47.02 71.7097 47.0267 71.2563 47.04C70.803 47.0667 70.3497 47.08 69.8963 47.08C69.763 47.08 69.6697 47.04 69.6163 46.96C69.563 46.8667 69.5363 46.7667 69.5363 46.66C69.5363 46.5533 69.5763 46.4733 69.6563 46.42C69.7497 46.3533 69.843 46.32 69.9363 46.32C70.0563 46.32 70.1763 46.3267 70.2963 46.34C70.4163 46.3533 70.5363 46.36 70.6563 46.36C70.683 46.36 70.7163 46.36 70.7563 46.36C70.7963 46.36 70.8297 46.36 70.8563 46.36C71.083 46.3333 71.203 46.2067 71.2163 45.98C71.243 45.74 71.2563 45.54 71.2563 45.38V34.98C70.4963 36.8733 69.723 38.76 68.9363 40.64C68.163 42.5067 67.403 44.3933 66.6563 46.3H65.0963C64.3363 44.3267 63.5497 42.3667 62.7363 40.42C61.9363 38.4733 61.1497 36.5133 60.3763 34.54C60.3763 36.3667 60.3897 38.1933 60.4163 40.02C60.443 41.8333 60.4563 43.6533 60.4563 45.48C60.4563 45.64 60.463 45.8333 60.4763 46.06C60.503 46.2733 60.6297 46.38 60.8563 46.38C61.0297 46.38 61.1963 46.3733 61.3563 46.36C61.5163 46.3467 61.683 46.34 61.8563 46.34C61.9497 46.34 62.0297 46.38 62.0963 46.46C62.163 46.5267 62.1963 46.6067 62.1963 46.7C62.1963 46.7667 62.1697 46.8467 62.1163 46.94C62.063 47.02 61.9963 47.06 61.9163 47.06C61.6763 47.06 61.4363 47.0533 61.1963 47.04C60.9563 47.0267 60.7163 47.02 60.4763 47.02C60.0497 47.02 59.6163 47.0267 59.1763 47.04C58.7363 47.0533 58.303 47.06 57.8763 47.06C57.743 47.06 57.6563 47.0267 57.6163 46.96C57.5763 46.88 57.5563 46.78 57.5563 46.66C57.5563 46.5533 57.5963 46.4733 57.6763 46.42C57.7697 46.3667 57.8563 46.34 57.9363 46.34C58.0563 46.34 58.1763 46.3467 58.2963 46.36C58.4297 46.3733 58.5563 46.38 58.6763 46.38C58.903 46.38 59.063 46.3533 59.1563 46.3C59.263 46.2333 59.3163 46.0733 59.3163 45.82C59.3163 43.7933 59.323 41.7667 59.3363 39.74C59.363 37.7 59.3763 35.6667 59.3763 33.64C59.3763 33.4267 59.3363 33.2733 59.2563 33.18C59.1897 33.0733 59.043 33.02 58.8163 33.02C58.683 33.02 58.5497 33.0267 58.4163 33.04C58.283 33.0533 58.1497 33.06 58.0163 33.06C57.9097 33.06 57.8163 33.02 57.7363 32.94C57.6563 32.86 57.6163 32.7667 57.6163 32.66C57.6163 32.4067 57.7497 32.28 58.0163 32.28C58.3363 32.28 58.6563 32.2867 58.9763 32.3C59.3097 32.3133 59.6363 32.32 59.9563 32.32C60.343 32.32 60.7297 32.32 61.1163 32.32C61.5163 32.32 61.9097 32.3 62.2963 32.26L66.7563 43.3C67.4763 41.4733 68.2297 39.66 69.0163 37.86C69.8163 36.0467 70.5163 34.2 71.1163 32.32C71.423 32.3333 71.7297 32.3467 72.0363 32.36C72.3563 32.36 72.6763 32.36 72.9963 32.36C73.4097 32.36 73.823 32.3467 74.2363 32.32C74.663 32.2933 75.083 32.28 75.4963 32.28C75.603 32.28 75.6763 32.3267 75.7163 32.42C75.7563 32.5 75.7763 32.58 75.7763 32.66C75.7763 32.74 75.7563 32.8333 75.7163 32.94C75.6763 33.0333 75.603 33.08 75.4963 33.08C75.3097 33.08 75.1163 33.08 74.9163 33.08C74.7297 33.0667 74.543 33.06 74.3563 33.06C74.223 33.06 74.123 33.12 74.0563 33.24C74.003 33.3467 73.9763 33.46 73.9763 33.58C73.9763 34.3533 73.9697 35.14 73.9563 35.94C73.9563 36.7267 73.9563 37.5133 73.9563 38.3C73.9563 39.4733 73.9563 40.6467 73.9563 41.82C73.9697 42.9933 73.9763 44.1667 73.9763 45.34C73.9763 45.46 73.983 45.6 73.9963 45.76C74.023 45.92 74.0697 46.0667 74.1363 46.2C74.2163 46.32 74.3363 46.38 74.4963 46.38C74.6563 46.38 74.8163 46.3733 74.9763 46.36C75.1363 46.3467 75.303 46.34 75.4763 46.34C75.5563 46.34 75.6297 46.3667 75.6963 46.42C75.763 46.4733 75.7963 46.5467 75.7963 46.64ZM82.8616 44.88C82.8216 44.2533 82.795 43.6267 82.7816 43C82.7683 42.36 82.7683 41.72 82.7816 41.08C82.235 41.1733 81.7016 41.3467 81.1816 41.6C80.675 41.84 80.255 42.1667 79.9216 42.58C79.5883 42.9933 79.4216 43.52 79.4216 44.16C79.4216 44.4267 79.455 44.7133 79.5216 45.02C79.6016 45.3267 79.735 45.5867 79.9216 45.8C80.1216 46 80.3883 46.1 80.7216 46.1C80.9616 46.1 81.215 46.0333 81.4816 45.9C81.7483 45.7533 82.0016 45.5867 82.2416 45.4C82.495 45.2133 82.7016 45.04 82.8616 44.88ZM86.9816 46.06C86.9816 46.1133 86.955 46.1733 86.9016 46.24C86.8616 46.3067 86.8216 46.36 86.7816 46.4C86.3683 46.88 85.835 47.12 85.1816 47.12C84.6083 47.12 84.1483 46.9933 83.8016 46.74C83.455 46.4867 83.1883 46.0933 83.0016 45.56C82.575 46.0133 82.115 46.3733 81.6216 46.64C81.1416 46.9067 80.575 47.04 79.9216 47.04C79.455 47.04 78.9816 46.94 78.5016 46.74C78.035 46.5267 77.6416 46.2267 77.3216 45.84C77.015 45.4533 76.8616 45.0067 76.8616 44.5C76.8616 43.9933 76.9883 43.5467 77.2416 43.16C77.5083 42.76 77.8416 42.42 78.2416 42.14C78.6416 41.8467 79.0483 41.6067 79.4616 41.42C79.995 41.1933 80.5416 41.02 81.1016 40.9C81.6616 40.7667 82.2216 40.6333 82.7816 40.5V40.42C82.7816 40.18 82.775 39.86 82.7616 39.46C82.7616 39.0467 82.7216 38.64 82.6416 38.24C82.5616 37.8267 82.4283 37.48 82.2416 37.2C82.055 36.9067 81.7816 36.76 81.4216 36.76C81.0083 36.76 80.635 36.88 80.3016 37.12C79.9816 37.36 79.755 37.68 79.6216 38.08C79.595 38.2 79.575 38.32 79.5616 38.44C79.5483 38.5467 79.5283 38.66 79.5016 38.78C79.475 38.9933 79.3483 39.14 79.1216 39.22C78.9083 39.2867 78.7083 39.32 78.5216 39.32C78.295 39.32 78.075 39.2733 77.8616 39.18C77.6483 39.0733 77.5416 38.88 77.5416 38.6C77.5416 38.4933 77.555 38.4 77.5816 38.32C77.6216 38.2267 77.6616 38.1333 77.7016 38.04C77.915 37.5333 78.235 37.16 78.6616 36.92C79.0883 36.68 79.555 36.52 80.0616 36.44C80.5816 36.36 81.075 36.32 81.5416 36.32C82.635 36.32 83.535 36.6133 84.2416 37.2C84.9483 37.7867 85.3016 38.6533 85.3016 39.8V42.82C85.2883 43.1933 85.2816 43.58 85.2816 43.98C85.295 44.3667 85.315 44.7533 85.3416 45.14C85.3683 45.3667 85.4216 45.5867 85.5016 45.8C85.5816 46 85.7616 46.1 86.0416 46.1C86.2283 46.1 86.3816 46.06 86.5016 45.98C86.635 45.9 86.755 45.86 86.8616 45.86C86.915 45.86 86.9483 45.8867 86.9616 45.94C86.975 45.9933 86.9816 46.0333 86.9816 46.06ZM93.3405 46.76C93.3405 46.9733 93.2339 47.08 93.0205 47.08C92.6339 47.08 92.2405 47.06 91.8405 47.02C91.4405 46.9933 91.0405 46.98 90.6405 46.98C90.2405 46.98 89.8339 46.9933 89.4205 47.02C89.0205 47.06 88.6205 47.08 88.2205 47.08C88.1272 47.08 88.0605 47.0467 88.0205 46.98C87.9805 46.9 87.9605 46.8267 87.9605 46.76C87.9605 46.5467 88.0605 46.44 88.2605 46.44C88.3939 46.44 88.5205 46.4467 88.6405 46.46C88.7605 46.4733 88.8805 46.48 89.0005 46.48C89.1605 46.48 89.2605 46.4267 89.3005 46.32C89.3539 46.2133 89.3805 46.0933 89.3805 45.96V38.02C89.3805 37.8867 89.3672 37.74 89.3405 37.58C89.3139 37.4067 89.2072 37.32 89.0205 37.32C88.8472 37.32 88.6672 37.3333 88.4805 37.36C88.2939 37.3867 88.1072 37.4 87.9205 37.4C87.8405 37.4 87.7605 37.38 87.6805 37.34C87.6139 37.3 87.5805 37.2333 87.5805 37.14C87.5805 36.9667 87.6672 36.8533 87.8405 36.8C87.9872 36.7733 88.1405 36.7533 88.3005 36.74C88.4739 36.7133 88.6339 36.6933 88.7805 36.68C89.2472 36.6133 89.7005 36.5333 90.1405 36.44C90.5939 36.3333 91.0472 36.2267 91.5005 36.12C91.5405 36.12 91.5805 36.12 91.6205 36.12C91.6605 36.1067 91.6939 36.1 91.7205 36.1C91.9205 36.1 92.0205 36.18 92.0205 36.34C92.0205 37.94 92.0139 39.5467 92.0005 41.16C91.9872 42.76 91.9805 44.36 91.9805 45.96C91.9805 46.2 92.0339 46.3533 92.1405 46.42C92.2472 46.4733 92.3805 46.4933 92.5405 46.48C92.7139 46.4667 92.8872 46.46 93.0605 46.46C93.2472 46.46 93.3405 46.56 93.3405 46.76ZM92.0805 33.02C92.0805 33.4333 91.9272 33.7933 91.6205 34.1C91.3272 34.4067 90.9672 34.56 90.5405 34.56C90.1272 34.56 89.7672 34.4067 89.4605 34.1C89.1539 33.7933 89.0005 33.4333 89.0005 33.02C89.0005 32.5933 89.1539 32.2333 89.4605 31.94C89.7672 31.6333 90.1272 31.48 90.5405 31.48C90.9672 31.48 91.3272 31.6333 91.6205 31.94C91.9272 32.2333 92.0805 32.5933 92.0805 33.02ZM106.116 46.72C106.116 46.9333 106.009 47.04 105.796 47.04C105.409 47.04 105.016 47.0267 104.616 47C104.229 46.9867 103.842 46.98 103.456 46.98C103.082 46.98 102.702 46.9867 102.316 47C101.929 47.0267 101.542 47.04 101.156 47.04C101.062 47.04 100.996 47.0067 100.956 46.94C100.916 46.86 100.896 46.78 100.896 46.7C100.896 46.5 101.002 46.4 101.216 46.4C101.336 46.4 101.456 46.4067 101.576 46.42C101.696 46.42 101.816 46.42 101.936 46.42C102.136 46.42 102.236 46.3333 102.236 46.16C102.236 45.04 102.236 43.92 102.236 42.8C102.249 41.68 102.256 40.56 102.256 39.44C102.256 39.08 102.222 38.7067 102.156 38.32C102.102 37.9333 101.969 37.6067 101.756 37.34C101.556 37.0733 101.222 36.94 100.756 36.94C100.462 36.94 100.156 37.0467 99.8355 37.26C99.5289 37.4733 99.2489 37.7267 98.9955 38.02C98.7555 38.3133 98.5822 38.5867 98.4755 38.84V45.92C98.4755 46.04 98.4889 46.1533 98.5155 46.26C98.5555 46.3667 98.6489 46.42 98.7955 46.42C98.9022 46.42 99.0089 46.42 99.1155 46.42C99.2355 46.4067 99.3489 46.4 99.4555 46.4C99.5222 46.4 99.5889 46.4267 99.6555 46.48C99.7222 46.5333 99.7555 46.5933 99.7555 46.66C99.7555 46.9133 99.6489 47.04 99.4355 47.04C99.0622 47.04 98.6889 47.0267 98.3155 47C97.9555 46.96 97.5822 46.94 97.1955 46.94C96.7955 46.94 96.3889 46.96 95.9755 47C95.5755 47.0267 95.1689 47.04 94.7555 47.04C94.6622 47.04 94.5955 47.0067 94.5555 46.94C94.5155 46.86 94.4955 46.78 94.4955 46.7C94.4955 46.5 94.6022 46.4 94.8155 46.4C94.9355 46.4 95.0555 46.4067 95.1755 46.42C95.2955 46.42 95.4222 46.42 95.5555 46.42C95.7422 46.42 95.8489 46.38 95.8755 46.3C95.9022 46.22 95.9155 46.0933 95.9155 45.92V43.02C95.9155 42.2067 95.9155 41.3933 95.9155 40.58C95.9155 39.7667 95.9155 38.9533 95.9155 38.14C95.9155 37.9933 95.8955 37.8333 95.8555 37.66C95.8155 37.4733 95.6955 37.38 95.4955 37.38C95.3622 37.38 95.2289 37.3867 95.0955 37.4C94.9755 37.4133 94.8489 37.42 94.7155 37.42C94.6355 37.42 94.5422 37.4067 94.4355 37.38C94.3422 37.34 94.2955 37.2667 94.2955 37.16C94.2955 37.08 94.3222 37.02 94.3755 36.98C94.4289 36.94 94.4889 36.9133 94.5555 36.9C94.6889 36.86 94.8289 36.8333 94.9755 36.82C95.1222 36.8067 95.2622 36.7867 95.3955 36.76C95.7422 36.6933 96.0822 36.62 96.4155 36.54C96.7622 36.4467 97.1022 36.3533 97.4355 36.26C97.4889 36.2333 97.5422 36.2133 97.5955 36.2C97.6489 36.1733 97.7022 36.16 97.7555 36.16C97.8622 36.16 97.9555 36.26 98.0355 36.46C98.1289 36.66 98.2022 36.8733 98.2555 37.1C98.3222 37.3267 98.3622 37.4867 98.3755 37.58C98.7622 37.2333 99.2289 36.9267 99.7755 36.66C100.322 36.38 100.862 36.24 101.396 36.24C102.289 36.24 102.982 36.3533 103.476 36.58C103.982 36.8067 104.342 37.1867 104.556 37.72C104.769 38.24 104.876 38.94 104.876 39.82C104.876 40.86 104.869 41.9 104.856 42.94C104.842 43.98 104.836 45.02 104.836 46.06C104.836 46.1933 104.876 46.2933 104.956 46.36C105.049 46.4133 105.162 46.44 105.296 46.44C105.389 46.44 105.476 46.4333 105.556 46.42C105.649 46.4067 105.742 46.4 105.836 46.4C106.022 46.4 106.116 46.5067 106.116 46.72ZM113.992 46.04C113.992 46.2267 113.892 46.3933 113.692 46.54C113.506 46.6733 113.266 46.7867 112.972 46.88C112.692 46.96 112.406 47.02 112.112 47.06C111.819 47.1 111.572 47.12 111.372 47.12C110.372 47.12 109.679 46.92 109.292 46.52C108.906 46.1067 108.712 45.4267 108.712 44.48C108.712 43.3333 108.719 42.1867 108.732 41.04C108.746 39.8933 108.752 38.7467 108.752 37.6H107.832C107.699 37.6 107.586 37.6467 107.492 37.74C107.399 37.82 107.312 37.86 107.232 37.86C107.099 37.86 107.032 37.7933 107.032 37.66C107.032 37.6067 107.059 37.5067 107.112 37.36C107.166 37.2133 107.206 37.12 107.232 37.08C107.272 37 107.312 36.9533 107.352 36.94C107.392 36.9267 107.452 36.92 107.532 36.92H108.772V34.78C109.106 34.5933 109.472 34.32 109.872 33.96C110.272 33.6 110.579 33.2667 110.792 32.96C110.832 32.8933 110.886 32.8267 110.952 32.76C111.019 32.68 111.099 32.64 111.192 32.64C111.406 32.64 111.506 32.7333 111.492 32.92L111.432 36.92H113.492C113.599 36.92 113.692 36.9467 113.772 37C113.866 37.04 113.912 37.12 113.912 37.24C113.912 37.4933 113.772 37.62 113.492 37.62H111.432L111.392 45.34C111.392 45.5533 111.432 45.76 111.512 45.96C111.606 46.1467 111.779 46.24 112.032 46.24C112.259 46.24 112.486 46.22 112.712 46.18C112.952 46.14 113.172 46.0733 113.372 45.98C113.439 45.9533 113.499 45.9267 113.552 45.9C113.619 45.86 113.686 45.84 113.752 45.84C113.912 45.84 113.992 45.9067 113.992 46.04ZM121.574 39.98C121.574 39.7133 121.56 39.3933 121.534 39.02C121.507 38.6467 121.44 38.2867 121.334 37.94C121.24 37.58 121.087 37.28 120.874 37.04C120.66 36.8 120.367 36.68 119.994 36.68C119.634 36.68 119.314 36.8 119.034 37.04C118.767 37.2667 118.54 37.56 118.354 37.92C118.167 38.2667 118.02 38.6333 117.914 39.02C117.807 39.3933 117.727 39.7267 117.674 40.02C117.9 40.02 118.12 40.0267 118.334 40.04C118.56 40.04 118.78 40.04 118.994 40.04C119.86 40.04 120.72 40.02 121.574 39.98ZM124.454 44.4C124.454 44.44 124.44 44.5 124.414 44.58C124.4 44.6467 124.38 44.7 124.354 44.74C124.26 44.9533 124.087 45.2 123.834 45.48C123.58 45.7467 123.354 45.9533 123.154 46.1C122.26 46.78 121.227 47.12 120.054 47.12C119 47.12 118.087 46.9 117.314 46.46C116.54 46.0067 115.947 45.38 115.534 44.58C115.12 43.78 114.914 42.86 114.914 41.82C114.914 40.78 115.114 39.84 115.514 39C115.927 38.1467 116.514 37.4733 117.274 36.98C118.047 36.4733 118.974 36.22 120.054 36.22C121.294 36.22 122.287 36.56 123.034 37.24C123.78 37.92 124.154 38.8933 124.154 40.16C124.154 40.5067 123.994 40.68 123.674 40.68C123.087 40.68 122.5 40.6733 121.914 40.66C121.327 40.6467 120.74 40.64 120.154 40.64C119.727 40.64 119.3 40.64 118.874 40.64C118.447 40.64 118.02 40.6467 117.594 40.66C117.554 41.06 117.534 41.4667 117.534 41.88C117.534 42.2533 117.58 42.6933 117.674 43.2C117.78 43.7067 117.934 44.2 118.134 44.68C118.347 45.16 118.62 45.56 118.954 45.88C119.287 46.1867 119.694 46.34 120.174 46.34C120.774 46.34 121.274 46.2533 121.674 46.08C122.087 45.9067 122.454 45.66 122.774 45.34C123.094 45.02 123.42 44.64 123.754 44.2C123.794 44.1467 123.834 44.1067 123.874 44.08C123.927 44.04 123.987 44.02 124.054 44.02C124.147 44.02 124.234 44.06 124.314 44.14C124.407 44.2067 124.454 44.2933 124.454 44.4ZM137.092 46.72C137.092 46.9333 136.985 47.04 136.772 47.04C136.385 47.04 135.992 47.0267 135.592 47C135.205 46.9867 134.819 46.98 134.432 46.98C134.059 46.98 133.679 46.9867 133.292 47C132.905 47.0267 132.519 47.04 132.132 47.04C132.039 47.04 131.972 47.0067 131.932 46.94C131.892 46.86 131.872 46.78 131.872 46.7C131.872 46.5 131.979 46.4 132.192 46.4C132.312 46.4 132.432 46.4067 132.552 46.42C132.672 46.42 132.792 46.42 132.912 46.42C133.112 46.42 133.212 46.3333 133.212 46.16C133.212 45.04 133.212 43.92 133.212 42.8C133.225 41.68 133.232 40.56 133.232 39.44C133.232 39.08 133.199 38.7067 133.132 38.32C133.079 37.9333 132.945 37.6067 132.732 37.34C132.532 37.0733 132.199 36.94 131.732 36.94C131.439 36.94 131.132 37.0467 130.812 37.26C130.505 37.4733 130.225 37.7267 129.972 38.02C129.732 38.3133 129.559 38.5867 129.452 38.84V45.92C129.452 46.04 129.465 46.1533 129.492 46.26C129.532 46.3667 129.625 46.42 129.772 46.42C129.879 46.42 129.985 46.42 130.092 46.42C130.212 46.4067 130.325 46.4 130.432 46.4C130.499 46.4 130.565 46.4267 130.632 46.48C130.699 46.5333 130.732 46.5933 130.732 46.66C130.732 46.9133 130.625 47.04 130.412 47.04C130.039 47.04 129.665 47.0267 129.292 47C128.932 46.96 128.559 46.94 128.172 46.94C127.772 46.94 127.365 46.96 126.952 47C126.552 47.0267 126.145 47.04 125.732 47.04C125.639 47.04 125.572 47.0067 125.532 46.94C125.492 46.86 125.472 46.78 125.472 46.7C125.472 46.5 125.579 46.4 125.792 46.4C125.912 46.4 126.032 46.4067 126.152 46.42C126.272 46.42 126.399 46.42 126.532 46.42C126.719 46.42 126.825 46.38 126.852 46.3C126.879 46.22 126.892 46.0933 126.892 45.92V43.02C126.892 42.2067 126.892 41.3933 126.892 40.58C126.892 39.7667 126.892 38.9533 126.892 38.14C126.892 37.9933 126.872 37.8333 126.832 37.66C126.792 37.4733 126.672 37.38 126.472 37.38C126.339 37.38 126.205 37.3867 126.072 37.4C125.952 37.4133 125.825 37.42 125.692 37.42C125.612 37.42 125.519 37.4067 125.412 37.38C125.319 37.34 125.272 37.2667 125.272 37.16C125.272 37.08 125.299 37.02 125.352 36.98C125.405 36.94 125.465 36.9133 125.532 36.9C125.665 36.86 125.805 36.8333 125.952 36.82C126.099 36.8067 126.239 36.7867 126.372 36.76C126.719 36.6933 127.059 36.62 127.392 36.54C127.739 36.4467 128.079 36.3533 128.412 36.26C128.465 36.2333 128.519 36.2133 128.572 36.2C128.625 36.1733 128.679 36.16 128.732 36.16C128.839 36.16 128.932 36.26 129.012 36.46C129.105 36.66 129.179 36.8733 129.232 37.1C129.299 37.3267 129.339 37.4867 129.352 37.58C129.739 37.2333 130.205 36.9267 130.752 36.66C131.299 36.38 131.839 36.24 132.372 36.24C133.265 36.24 133.959 36.3533 134.452 36.58C134.959 36.8067 135.319 37.1867 135.532 37.72C135.745 38.24 135.852 38.94 135.852 39.82C135.852 40.86 135.845 41.9 135.832 42.94C135.819 43.98 135.812 45.02 135.812 46.06C135.812 46.1933 135.852 46.2933 135.932 46.36C136.025 46.4133 136.139 46.44 136.272 46.44C136.365 46.44 136.452 46.4333 136.532 46.42C136.625 46.4067 136.719 46.4 136.812 46.4C136.999 46.4 137.092 46.5067 137.092 46.72ZM144.229 44.88C144.189 44.2533 144.162 43.6267 144.149 43C144.135 42.36 144.135 41.72 144.149 41.08C143.602 41.1733 143.069 41.3467 142.549 41.6C142.042 41.84 141.622 42.1667 141.289 42.58C140.955 42.9933 140.789 43.52 140.789 44.16C140.789 44.4267 140.822 44.7133 140.889 45.02C140.969 45.3267 141.102 45.5867 141.289 45.8C141.489 46 141.755 46.1 142.089 46.1C142.329 46.1 142.582 46.0333 142.849 45.9C143.115 45.7533 143.369 45.5867 143.609 45.4C143.862 45.2133 144.069 45.04 144.229 44.88ZM148.349 46.06C148.349 46.1133 148.322 46.1733 148.269 46.24C148.229 46.3067 148.189 46.36 148.149 46.4C147.735 46.88 147.202 47.12 146.549 47.12C145.975 47.12 145.515 46.9933 145.169 46.74C144.822 46.4867 144.555 46.0933 144.369 45.56C143.942 46.0133 143.482 46.3733 142.989 46.64C142.509 46.9067 141.942 47.04 141.289 47.04C140.822 47.04 140.349 46.94 139.869 46.74C139.402 46.5267 139.009 46.2267 138.689 45.84C138.382 45.4533 138.229 45.0067 138.229 44.5C138.229 43.9933 138.355 43.5467 138.609 43.16C138.875 42.76 139.209 42.42 139.609 42.14C140.009 41.8467 140.415 41.6067 140.829 41.42C141.362 41.1933 141.909 41.02 142.469 40.9C143.029 40.7667 143.589 40.6333 144.149 40.5V40.42C144.149 40.18 144.142 39.86 144.129 39.46C144.129 39.0467 144.089 38.64 144.009 38.24C143.929 37.8267 143.795 37.48 143.609 37.2C143.422 36.9067 143.149 36.76 142.789 36.76C142.375 36.76 142.002 36.88 141.669 37.12C141.349 37.36 141.122 37.68 140.989 38.08C140.962 38.2 140.942 38.32 140.929 38.44C140.915 38.5467 140.895 38.66 140.869 38.78C140.842 38.9933 140.715 39.14 140.489 39.22C140.275 39.2867 140.075 39.32 139.889 39.32C139.662 39.32 139.442 39.2733 139.229 39.18C139.015 39.0733 138.909 38.88 138.909 38.6C138.909 38.4933 138.922 38.4 138.949 38.32C138.989 38.2267 139.029 38.1333 139.069 38.04C139.282 37.5333 139.602 37.16 140.029 36.92C140.455 36.68 140.922 36.52 141.429 36.44C141.949 36.36 142.442 36.32 142.909 36.32C144.002 36.32 144.902 36.6133 145.609 37.2C146.315 37.7867 146.669 38.6533 146.669 39.8V42.82C146.655 43.1933 146.649 43.58 146.649 43.98C146.662 44.3667 146.682 44.7533 146.709 45.14C146.735 45.3667 146.789 45.5867 146.869 45.8C146.949 46 147.129 46.1 147.409 46.1C147.595 46.1 147.749 46.06 147.869 45.98C148.002 45.9 148.122 45.86 148.229 45.86C148.282 45.86 148.315 45.8867 148.329 45.94C148.342 45.9933 148.349 46.0333 148.349 46.06ZM160.608 46.72C160.608 46.9333 160.501 47.04 160.288 47.04C159.901 47.04 159.508 47.0267 159.108 47C158.721 46.9867 158.334 46.98 157.948 46.98C157.574 46.98 157.194 46.9867 156.808 47C156.421 47.0267 156.034 47.04 155.648 47.04C155.554 47.04 155.488 47.0067 155.448 46.94C155.408 46.86 155.388 46.78 155.388 46.7C155.388 46.5 155.494 46.4 155.708 46.4C155.828 46.4 155.948 46.4067 156.068 46.42C156.188 46.42 156.308 46.42 156.428 46.42C156.628 46.42 156.728 46.3333 156.728 46.16C156.728 45.04 156.728 43.92 156.728 42.8C156.741 41.68 156.748 40.56 156.748 39.44C156.748 39.08 156.714 38.7067 156.648 38.32C156.594 37.9333 156.461 37.6067 156.248 37.34C156.048 37.0733 155.714 36.94 155.248 36.94C154.954 36.94 154.648 37.0467 154.328 37.26C154.021 37.4733 153.741 37.7267 153.488 38.02C153.248 38.3133 153.074 38.5867 152.968 38.84V45.92C152.968 46.04 152.981 46.1533 153.008 46.26C153.048 46.3667 153.141 46.42 153.288 46.42C153.394 46.42 153.501 46.42 153.608 46.42C153.728 46.4067 153.841 46.4 153.948 46.4C154.014 46.4 154.081 46.4267 154.148 46.48C154.214 46.5333 154.248 46.5933 154.248 46.66C154.248 46.9133 154.141 47.04 153.928 47.04C153.554 47.04 153.181 47.0267 152.808 47C152.448 46.96 152.074 46.94 151.688 46.94C151.288 46.94 150.881 46.96 150.468 47C150.068 47.0267 149.661 47.04 149.248 47.04C149.154 47.04 149.088 47.0067 149.048 46.94C149.008 46.86 148.988 46.78 148.988 46.7C148.988 46.5 149.094 46.4 149.308 46.4C149.428 46.4 149.548 46.4067 149.668 46.42C149.788 46.42 149.914 46.42 150.048 46.42C150.234 46.42 150.341 46.38 150.368 46.3C150.394 46.22 150.408 46.0933 150.408 45.92V43.02C150.408 42.2067 150.408 41.3933 150.408 40.58C150.408 39.7667 150.408 38.9533 150.408 38.14C150.408 37.9933 150.388 37.8333 150.348 37.66C150.308 37.4733 150.188 37.38 149.988 37.38C149.854 37.38 149.721 37.3867 149.588 37.4C149.468 37.4133 149.341 37.42 149.208 37.42C149.128 37.42 149.034 37.4067 148.928 37.38C148.834 37.34 148.788 37.2667 148.788 37.16C148.788 37.08 148.814 37.02 148.868 36.98C148.921 36.94 148.981 36.9133 149.048 36.9C149.181 36.86 149.321 36.8333 149.468 36.82C149.614 36.8067 149.754 36.7867 149.888 36.76C150.234 36.6933 150.574 36.62 150.908 36.54C151.254 36.4467 151.594 36.3533 151.928 36.26C151.981 36.2333 152.034 36.2133 152.088 36.2C152.141 36.1733 152.194 36.16 152.248 36.16C152.354 36.16 152.448 36.26 152.528 36.46C152.621 36.66 152.694 36.8733 152.748 37.1C152.814 37.3267 152.854 37.4867 152.868 37.58C153.254 37.2333 153.721 36.9267 154.268 36.66C154.814 36.38 155.354 36.24 155.888 36.24C156.781 36.24 157.474 36.3533 157.968 36.58C158.474 36.8067 158.834 37.1867 159.048 37.72C159.261 38.24 159.368 38.94 159.368 39.82C159.368 40.86 159.361 41.9 159.348 42.94C159.334 43.98 159.328 45.02 159.328 46.06C159.328 46.1933 159.368 46.2933 159.448 46.36C159.541 46.4133 159.654 46.44 159.788 46.44C159.881 46.44 159.968 46.4333 160.048 46.42C160.141 46.4067 160.234 46.4 160.328 46.4C160.514 46.4 160.608 46.5067 160.608 46.72ZM171.644 44.34C171.644 44.3933 171.631 44.4533 171.604 44.52C171.578 44.5733 171.551 44.6267 171.524 44.68C171.244 45.2 170.864 45.64 170.384 46C169.918 46.3467 169.398 46.6133 168.824 46.8C168.251 46.9867 167.678 47.08 167.104 47.08C166.611 47.08 166.071 47 165.484 46.84C164.898 46.68 164.391 46.4533 163.964 46.16C163.271 45.6533 162.758 45.0267 162.424 44.28C162.104 43.5333 161.944 42.74 161.944 41.9C161.944 40.86 162.144 39.9133 162.544 39.06C162.944 38.1933 163.524 37.5 164.284 36.98C165.058 36.46 165.991 36.2 167.084 36.2C167.484 36.2 167.864 36.26 168.224 36.38C168.331 36.4067 168.498 36.48 168.724 36.6C168.964 36.7067 169.198 36.8067 169.424 36.9C169.651 36.9933 169.791 37.04 169.844 37.04C169.991 37.04 170.131 36.9867 170.264 36.88C170.411 36.76 170.524 36.7 170.604 36.7C170.684 36.7 170.724 36.7533 170.724 36.86C170.751 36.9933 170.764 37.14 170.764 37.3C170.764 37.4467 170.771 37.5933 170.784 37.74C170.798 38.06 170.818 38.38 170.844 38.7C170.884 39.02 170.904 39.34 170.904 39.66C170.904 39.8333 170.878 39.9867 170.824 40.12C170.771 40.2533 170.644 40.32 170.444 40.32C170.311 40.32 170.211 40.2867 170.144 40.22C170.078 40.1533 170.031 40.0667 170.004 39.96C169.844 39.48 169.678 39.0133 169.504 38.56C169.344 38.0933 169.071 37.6867 168.684 37.34C168.538 37.1933 168.324 37.06 168.044 36.94C167.778 36.8067 167.538 36.74 167.324 36.74C166.764 36.74 166.304 36.92 165.944 37.28C165.584 37.64 165.298 38.0867 165.084 38.62C164.871 39.1533 164.718 39.7067 164.624 40.28C164.544 40.84 164.504 41.3333 164.504 41.76C164.504 42.16 164.551 42.6267 164.644 43.16C164.738 43.68 164.891 44.1867 165.104 44.68C165.318 45.16 165.598 45.5667 165.944 45.9C166.291 46.22 166.724 46.38 167.244 46.38C167.738 46.38 168.238 46.2733 168.744 46.06C169.251 45.8467 169.678 45.5667 170.024 45.22C170.131 45.1133 170.238 45 170.344 44.88C170.464 44.76 170.571 44.6333 170.664 44.5C170.704 44.4333 170.744 44.3733 170.784 44.32C170.824 44.2533 170.871 44.1933 170.924 44.14C171.031 44.0333 171.138 43.98 171.244 43.98C171.351 43.98 171.444 44.0133 171.524 44.08C171.604 44.1467 171.644 44.2333 171.644 44.34ZM179.425 39.98C179.425 39.7133 179.412 39.3933 179.385 39.02C179.359 38.6467 179.292 38.2867 179.185 37.94C179.092 37.58 178.939 37.28 178.725 37.04C178.512 36.8 178.219 36.68 177.845 36.68C177.485 36.68 177.165 36.8 176.885 37.04C176.619 37.2667 176.392 37.56 176.205 37.92C176.019 38.2667 175.872 38.6333 175.765 39.02C175.659 39.3933 175.579 39.7267 175.525 40.02C175.752 40.02 175.972 40.0267 176.185 40.04C176.412 40.04 176.632 40.04 176.845 40.04C177.712 40.04 178.572 40.02 179.425 39.98ZM182.305 44.4C182.305 44.44 182.292 44.5 182.265 44.58C182.252 44.6467 182.232 44.7 182.205 44.74C182.112 44.9533 181.939 45.2 181.685 45.48C181.432 45.7467 181.205 45.9533 181.005 46.1C180.112 46.78 179.079 47.12 177.905 47.12C176.852 47.12 175.939 46.9 175.165 46.46C174.392 46.0067 173.799 45.38 173.385 44.58C172.972 43.78 172.765 42.86 172.765 41.82C172.765 40.78 172.965 39.84 173.365 39C173.779 38.1467 174.365 37.4733 175.125 36.98C175.899 36.4733 176.825 36.22 177.905 36.22C179.145 36.22 180.139 36.56 180.885 37.24C181.632 37.92 182.005 38.8933 182.005 40.16C182.005 40.5067 181.845 40.68 181.525 40.68C180.939 40.68 180.352 40.6733 179.765 40.66C179.179 40.6467 178.592 40.64 178.005 40.64C177.579 40.64 177.152 40.64 176.725 40.64C176.299 40.64 175.872 40.6467 175.445 40.66C175.405 41.06 175.385 41.4667 175.385 41.88C175.385 42.2533 175.432 42.6933 175.525 43.2C175.632 43.7067 175.785 44.2 175.985 44.68C176.199 45.16 176.472 45.56 176.805 45.88C177.139 46.1867 177.545 46.34 178.025 46.34C178.625 46.34 179.125 46.2533 179.525 46.08C179.939 45.9067 180.305 45.66 180.625 45.34C180.945 45.02 181.272 44.64 181.605 44.2C181.645 44.1467 181.685 44.1067 181.725 44.08C181.779 44.04 181.839 44.02 181.905 44.02C181.999 44.02 182.085 44.06 182.165 44.14C182.259 44.2067 182.305 44.2933 182.305 44.4Z" fill="black"/>
</svg>
