<svg width="217" height="77" viewBox="0 0 217 77" fill="none" xmlns="http://www.w3.org/2000/svg">
<path d="M45.5 11.5L52.2279 32.1262H74L56.386 44.8738L63.114 65.5L45.5 52.7523L27.886 65.5L34.614 44.8738L17 32.1262H38.7721L45.5 11.5Z" fill="#893535"/>
<path d="M109.318 19.02C109.318 18.46 109.224 17.9467 109.038 17.48C108.851 17.0133 108.558 16.6467 108.158 16.38C107.771 16.1 107.278 15.96 106.678 15.96C106.544 15.96 106.411 15.96 106.278 15.96C106.144 15.9467 106.011 15.94 105.878 15.94C105.544 15.94 105.331 15.9733 105.238 16.04C105.144 16.0933 105.098 16.3067 105.098 16.68C105.098 17.5867 105.098 18.5 105.098 19.42C105.098 20.34 105.104 21.2533 105.118 22.16C105.318 22.3333 105.551 22.4467 105.818 22.5C106.084 22.54 106.344 22.56 106.598 22.56C107.291 22.56 107.831 22.3933 108.218 22.06C108.618 21.7133 108.898 21.2667 109.058 20.72C109.231 20.1733 109.318 19.6067 109.318 19.02ZM112.198 18.96C112.198 19.84 112.044 20.56 111.738 21.12C111.431 21.6667 111.011 22.0933 110.478 22.4C109.958 22.7067 109.358 22.92 108.678 23.04C108.011 23.1467 107.304 23.2 106.558 23.2C106.318 23.2 106.078 23.1867 105.838 23.16C105.598 23.1333 105.358 23.1067 105.118 23.08C105.118 24.0533 105.118 25.0267 105.118 26C105.118 26.96 105.118 27.9267 105.118 28.9C105.118 29.0067 105.138 29.12 105.178 29.24C105.231 29.36 105.324 29.42 105.458 29.42C105.631 29.42 105.798 29.4133 105.958 29.4C106.131 29.3867 106.304 29.38 106.478 29.38C106.571 29.38 106.644 29.4333 106.698 29.54C106.764 29.6467 106.798 29.7333 106.798 29.8C106.798 29.8933 106.764 29.9667 106.698 30.02C106.631 30.0733 106.558 30.1 106.478 30.1C106.304 30.1 106.131 30.0933 105.958 30.08C105.784 30.0667 105.604 30.0533 105.418 30.04C105.151 30.0133 104.878 30 104.598 30C104.318 30 104.044 30 103.778 30C103.138 30 102.504 30.02 101.878 30.06C101.731 30.0733 101.584 30.08 101.438 30.08C101.304 30.0933 101.164 30.1 101.018 30.1C100.884 30.1 100.798 30.06 100.758 29.98C100.718 29.8867 100.698 29.7933 100.698 29.7C100.698 29.5933 100.738 29.52 100.818 29.48C100.898 29.4267 100.984 29.4 101.078 29.4C101.198 29.4 101.318 29.4067 101.438 29.42C101.558 29.4333 101.684 29.44 101.818 29.44C101.844 29.44 101.878 29.44 101.918 29.44C101.958 29.44 101.991 29.44 102.018 29.44C102.204 29.4267 102.311 29.32 102.338 29.12C102.378 28.92 102.398 28.7533 102.398 28.62V16.84C102.398 16.7333 102.384 16.58 102.358 16.38C102.331 16.1667 102.238 16.0533 102.078 16.04C102.038 16.04 101.998 16.04 101.958 16.04C101.931 16.04 101.904 16.04 101.878 16.04C101.744 16.04 101.611 16.0467 101.478 16.06C101.344 16.0733 101.211 16.08 101.078 16.08C100.984 16.08 100.891 16.04 100.798 15.96C100.718 15.88 100.678 15.7933 100.678 15.7C100.678 15.6067 100.718 15.52 100.798 15.44C100.891 15.36 100.984 15.32 101.078 15.32C101.224 15.32 101.371 15.3267 101.518 15.34C101.678 15.3533 101.831 15.3667 101.978 15.38C102.284 15.3933 102.584 15.4067 102.878 15.42C103.184 15.42 103.484 15.42 103.778 15.42C104.391 15.42 104.998 15.4067 105.598 15.38C106.211 15.34 106.824 15.32 107.438 15.32C108.024 15.32 108.598 15.3867 109.158 15.52C109.731 15.64 110.244 15.84 110.698 16.12C111.151 16.4 111.511 16.7733 111.778 17.24C112.058 17.7067 112.198 18.28 112.198 18.96ZM121.358 21.62C121.358 21.7533 121.318 21.88 121.238 22C121.171 22.1067 121.065 22.16 120.918 22.16C120.691 22.16 120.538 22.0667 120.458 21.88C120.378 21.7067 120.291 21.5067 120.198 21.28C120.118 21.04 120.005 20.8333 119.858 20.66C119.725 20.4867 119.531 20.4 119.278 20.4C119.145 20.4 119.018 20.4267 118.898 20.48C118.778 20.5333 118.665 20.6 118.558 20.68C118.131 20.9733 117.785 21.3933 117.518 21.94C117.265 22.4733 117.098 23 117.018 23.52V23.5C117.018 23.9933 117.018 24.4867 117.018 24.98C117.018 25.4733 117.018 25.9667 117.018 26.46V28.92C117.018 29.1467 117.078 29.2933 117.198 29.36C117.331 29.4267 117.485 29.4533 117.658 29.44C117.845 29.4133 118.011 29.4 118.158 29.4C118.345 29.4 118.438 29.5 118.438 29.7C118.438 29.9133 118.331 30.02 118.118 30.02C117.718 30.02 117.318 30.0133 116.918 30C116.518 29.9867 116.118 29.98 115.718 29.98C115.305 29.98 114.891 29.9867 114.478 30C114.065 30.0267 113.645 30.04 113.218 30.04C113.125 30.04 113.058 30.0067 113.018 29.94C112.978 29.86 112.958 29.7867 112.958 29.72C112.958 29.52 113.065 29.42 113.278 29.42C113.411 29.42 113.538 29.4267 113.658 29.44C113.791 29.44 113.925 29.44 114.058 29.44C114.218 29.44 114.325 29.3867 114.378 29.28C114.431 29.1733 114.458 29.0533 114.458 28.92C114.458 27.9733 114.458 27.02 114.458 26.06C114.458 25.1 114.458 24.1467 114.458 23.2C114.458 22.9467 114.458 22.6933 114.458 22.44C114.458 22.1867 114.458 21.9333 114.458 21.68C114.458 21.5333 114.445 21.36 114.418 21.16C114.391 20.96 114.331 20.78 114.238 20.62C114.158 20.46 114.018 20.38 113.818 20.38C113.685 20.38 113.551 20.4 113.418 20.44C113.298 20.4667 113.165 20.48 113.018 20.48C112.818 20.48 112.718 20.38 112.718 20.18C112.718 20.0333 112.791 19.9333 112.938 19.88C113.125 19.8133 113.318 19.7733 113.518 19.76C113.718 19.7333 113.911 19.7 114.098 19.66C114.271 19.62 114.498 19.5667 114.778 19.5C115.058 19.42 115.331 19.3533 115.598 19.3C115.878 19.2333 116.091 19.2 116.238 19.2C116.438 19.2 116.585 19.2733 116.678 19.42C116.718 19.4867 116.758 19.6467 116.798 19.9C116.838 20.14 116.871 20.3867 116.898 20.64C116.925 20.8933 116.938 21.0733 116.938 21.18C117.351 20.66 117.811 20.1867 118.318 19.76C118.825 19.3333 119.438 19.12 120.158 19.12C120.345 19.12 120.538 19.16 120.738 19.24C120.951 19.3067 121.085 19.4467 121.138 19.66C121.205 19.9133 121.258 20.24 121.298 20.64C121.338 21.0267 121.358 21.3533 121.358 21.62ZM130.165 24.74C130.165 24.3 130.131 23.8 130.065 23.24C130.011 22.6667 129.891 22.1133 129.705 21.58C129.518 21.0467 129.245 20.6067 128.885 20.26C128.538 19.9 128.065 19.72 127.465 19.72C126.918 19.72 126.478 19.8933 126.145 20.24C125.811 20.5867 125.551 21.02 125.365 21.54C125.191 22.06 125.071 22.6 125.005 23.16C124.938 23.7067 124.905 24.18 124.905 24.58C124.905 25.02 124.931 25.5267 124.985 26.1C125.051 26.66 125.178 27.2067 125.365 27.74C125.551 28.2733 125.825 28.7133 126.185 29.06C126.545 29.4067 127.025 29.58 127.625 29.58C128.185 29.58 128.631 29.4133 128.965 29.08C129.311 28.7333 129.571 28.3067 129.745 27.8C129.918 27.28 130.031 26.7467 130.085 26.2C130.138 25.64 130.165 25.1533 130.165 24.74ZM132.885 24.84C132.885 25.8667 132.651 26.78 132.185 27.58C131.718 28.3667 131.078 28.9867 130.265 29.44C129.465 29.8933 128.551 30.12 127.525 30.12C126.498 30.12 125.591 29.88 124.805 29.4C124.018 28.92 123.398 28.2733 122.945 27.46C122.505 26.6467 122.285 25.7333 122.285 24.72C122.285 23.6667 122.505 22.7267 122.945 21.9C123.385 21.06 124.005 20.4 124.805 19.92C125.605 19.4267 126.538 19.18 127.605 19.18C128.778 19.18 129.751 19.42 130.525 19.9C131.311 20.3667 131.898 21.0267 132.285 21.88C132.685 22.72 132.885 23.7067 132.885 24.84ZM142.227 27.06C142.227 27.6867 142.094 28.2 141.827 28.6C141.56 28.9867 141.207 29.2867 140.767 29.5C140.327 29.7133 139.847 29.86 139.327 29.94C138.82 30.02 138.314 30.06 137.807 30.06C137.474 30.06 137.147 30.0267 136.827 29.96C136.507 29.8933 136.187 29.82 135.867 29.74C135.734 29.7133 135.594 29.6867 135.447 29.66C135.3 29.62 135.154 29.6 135.007 29.6C134.954 29.4133 134.874 29.14 134.767 28.78C134.674 28.4067 134.58 28.0467 134.487 27.7C134.407 27.34 134.367 27.0867 134.367 26.94C134.367 26.7933 134.414 26.7 134.507 26.66C134.6 26.62 134.7 26.6 134.807 26.6C134.967 26.6 135.087 26.66 135.167 26.78C135.367 27.06 135.527 27.3533 135.647 27.66C135.767 27.9667 135.954 28.2533 136.207 28.52C136.394 28.72 136.66 28.9267 137.007 29.14C137.367 29.34 137.687 29.44 137.967 29.44C138.567 29.44 139.014 29.3 139.307 29.02C139.614 28.74 139.767 28.2933 139.767 27.68C139.767 27.2667 139.64 26.92 139.387 26.64C139.134 26.36 138.807 26.1067 138.407 25.88C138.02 25.6533 137.607 25.4333 137.167 25.22C136.727 24.9933 136.307 24.7467 135.907 24.48C135.52 24.2133 135.2 23.8933 134.947 23.52C134.694 23.1333 134.567 22.6667 134.567 22.12C134.567 21.44 134.754 20.8867 135.127 20.46C135.5 20.0333 135.974 19.72 136.547 19.52C137.134 19.32 137.72 19.22 138.307 19.22C138.574 19.22 138.834 19.24 139.087 19.28C139.34 19.32 139.594 19.3933 139.847 19.5C139.967 19.54 140.127 19.5933 140.327 19.66C140.54 19.7133 140.707 19.74 140.827 19.74C141 19.74 141.167 19.72 141.327 19.68C141.354 20.0533 141.394 20.4267 141.447 20.8C141.514 21.1733 141.554 21.5467 141.567 21.92V21.98C141.58 22.1133 141.54 22.2267 141.447 22.32C141.367 22.4 141.267 22.44 141.147 22.44C141.014 22.44 140.914 22.4133 140.847 22.36C140.794 22.3067 140.74 22.2267 140.687 22.12C140.514 21.7333 140.34 21.3667 140.167 21.02C140.007 20.66 139.787 20.3667 139.507 20.14C139.24 19.9133 138.854 19.8 138.347 19.8C137.814 19.8 137.42 20.0067 137.167 20.42C136.914 20.8333 136.787 21.2733 136.787 21.74C136.787 22.1133 136.927 22.4333 137.207 22.7C137.487 22.9667 137.774 23.18 138.067 23.34C138.427 23.5267 138.84 23.7333 139.307 23.96C139.787 24.1867 140.247 24.4467 140.687 24.74C141.127 25.0333 141.494 25.3733 141.787 25.76C142.08 26.1333 142.227 26.5667 142.227 27.06ZM150.273 22.98C150.273 22.7133 150.26 22.3933 150.233 22.02C150.206 21.6467 150.14 21.2867 150.033 20.94C149.94 20.58 149.786 20.28 149.573 20.04C149.36 19.8 149.066 19.68 148.693 19.68C148.333 19.68 148.013 19.8 147.733 20.04C147.466 20.2667 147.24 20.56 147.053 20.92C146.866 21.2667 146.72 21.6333 146.613 22.02C146.506 22.3933 146.426 22.7267 146.373 23.02C146.6 23.02 146.82 23.0267 147.033 23.04C147.26 23.04 147.48 23.04 147.693 23.04C148.56 23.04 149.42 23.02 150.273 22.98ZM153.153 27.4C153.153 27.44 153.14 27.5 153.113 27.58C153.1 27.6467 153.08 27.7 153.053 27.74C152.96 27.9533 152.786 28.2 152.533 28.48C152.28 28.7467 152.053 28.9533 151.853 29.1C150.96 29.78 149.926 30.12 148.753 30.12C147.7 30.12 146.786 29.9 146.013 29.46C145.24 29.0067 144.646 28.38 144.233 27.58C143.82 26.78 143.613 25.86 143.613 24.82C143.613 23.78 143.813 22.84 144.213 22C144.626 21.1467 145.213 20.4733 145.973 19.98C146.746 19.4733 147.673 19.22 148.753 19.22C149.993 19.22 150.986 19.56 151.733 20.24C152.48 20.92 152.853 21.8933 152.853 23.16C152.853 23.5067 152.693 23.68 152.373 23.68C151.786 23.68 151.2 23.6733 150.613 23.66C150.026 23.6467 149.44 23.64 148.853 23.64C148.426 23.64 148 23.64 147.573 23.64C147.146 23.64 146.72 23.6467 146.293 23.66C146.253 24.06 146.233 24.4667 146.233 24.88C146.233 25.2533 146.28 25.6933 146.373 26.2C146.48 26.7067 146.633 27.2 146.833 27.68C147.046 28.16 147.32 28.56 147.653 28.88C147.986 29.1867 148.393 29.34 148.873 29.34C149.473 29.34 149.973 29.2533 150.373 29.08C150.786 28.9067 151.153 28.66 151.473 28.34C151.793 28.02 152.12 27.64 152.453 27.2C152.493 27.1467 152.533 27.1067 152.573 27.08C152.626 27.04 152.686 27.02 152.753 27.02C152.846 27.02 152.933 27.06 153.013 27.14C153.106 27.2067 153.153 27.2933 153.153 27.4ZM162.471 21.62C162.471 21.7533 162.431 21.88 162.351 22C162.285 22.1067 162.178 22.16 162.031 22.16C161.805 22.16 161.651 22.0667 161.571 21.88C161.491 21.7067 161.405 21.5067 161.311 21.28C161.231 21.04 161.118 20.8333 160.971 20.66C160.838 20.4867 160.645 20.4 160.391 20.4C160.258 20.4 160.131 20.4267 160.011 20.48C159.891 20.5333 159.778 20.6 159.671 20.68C159.245 20.9733 158.898 21.3933 158.631 21.94C158.378 22.4733 158.211 23 158.131 23.52V23.5C158.131 23.9933 158.131 24.4867 158.131 24.98C158.131 25.4733 158.131 25.9667 158.131 26.46V28.92C158.131 29.1467 158.191 29.2933 158.311 29.36C158.445 29.4267 158.598 29.4533 158.771 29.44C158.958 29.4133 159.125 29.4 159.271 29.4C159.458 29.4 159.551 29.5 159.551 29.7C159.551 29.9133 159.445 30.02 159.231 30.02C158.831 30.02 158.431 30.0133 158.031 30C157.631 29.9867 157.231 29.98 156.831 29.98C156.418 29.98 156.005 29.9867 155.591 30C155.178 30.0267 154.758 30.04 154.331 30.04C154.238 30.04 154.171 30.0067 154.131 29.94C154.091 29.86 154.071 29.7867 154.071 29.72C154.071 29.52 154.178 29.42 154.391 29.42C154.525 29.42 154.651 29.4267 154.771 29.44C154.905 29.44 155.038 29.44 155.171 29.44C155.331 29.44 155.438 29.3867 155.491 29.28C155.545 29.1733 155.571 29.0533 155.571 28.92C155.571 27.9733 155.571 27.02 155.571 26.06C155.571 25.1 155.571 24.1467 155.571 23.2C155.571 22.9467 155.571 22.6933 155.571 22.44C155.571 22.1867 155.571 21.9333 155.571 21.68C155.571 21.5333 155.558 21.36 155.531 21.16C155.505 20.96 155.445 20.78 155.351 20.62C155.271 20.46 155.131 20.38 154.931 20.38C154.798 20.38 154.665 20.4 154.531 20.44C154.411 20.4667 154.278 20.48 154.131 20.48C153.931 20.48 153.831 20.38 153.831 20.18C153.831 20.0333 153.905 19.9333 154.051 19.88C154.238 19.8133 154.431 19.7733 154.631 19.76C154.831 19.7333 155.025 19.7 155.211 19.66C155.385 19.62 155.611 19.5667 155.891 19.5C156.171 19.42 156.445 19.3533 156.711 19.3C156.991 19.2333 157.205 19.2 157.351 19.2C157.551 19.2 157.698 19.2733 157.791 19.42C157.831 19.4867 157.871 19.6467 157.911 19.9C157.951 20.14 157.985 20.3867 158.011 20.64C158.038 20.8933 158.051 21.0733 158.051 21.18C158.465 20.66 158.925 20.1867 159.431 19.76C159.938 19.3333 160.551 19.12 161.271 19.12C161.458 19.12 161.651 19.16 161.851 19.24C162.065 19.3067 162.198 19.4467 162.251 19.66C162.318 19.9133 162.371 20.24 162.411 20.64C162.451 21.0267 162.471 21.3533 162.471 21.62ZM174.158 19.5C174.158 19.6067 174.118 19.68 174.038 19.72C173.971 19.76 173.885 19.78 173.778 19.78C173.725 19.78 173.665 19.78 173.598 19.78C173.531 19.78 173.485 19.78 173.458 19.78C173.205 19.78 173.025 19.9 172.918 20.14C172.865 20.2733 172.811 20.42 172.758 20.58C172.705 20.74 172.651 20.8933 172.598 21.04C172.105 22.5467 171.598 24.0467 171.078 25.54C170.558 27.02 170.045 28.5133 169.538 30.02L167.058 30.12C166.738 29.1333 166.418 28.1467 166.098 27.16C165.791 26.16 165.478 25.16 165.158 24.16C164.985 23.6133 164.811 23.0667 164.638 22.52C164.478 21.9733 164.305 21.4333 164.118 20.9C163.985 20.5667 163.811 20.38 163.598 20.34C163.398 20.2867 163.145 20.26 162.838 20.26C162.638 20.26 162.538 20.1667 162.538 19.98C162.538 19.8733 162.558 19.8 162.598 19.76C162.638 19.72 162.705 19.6933 162.798 19.68C162.931 19.6533 163.071 19.6333 163.218 19.62C163.378 19.5933 163.525 19.5733 163.658 19.56C163.951 19.52 164.238 19.48 164.518 19.44C164.811 19.3867 165.105 19.34 165.398 19.3C165.491 19.2733 165.578 19.2533 165.658 19.24C165.751 19.2267 165.845 19.22 165.938 19.22C166.125 19.22 166.251 19.3067 166.318 19.48C166.385 19.64 166.438 19.8067 166.478 19.98C166.531 20.1533 166.585 20.3267 166.638 20.5L167.258 22.64C167.565 23.6933 167.871 24.7533 168.178 25.82C168.498 26.8733 168.811 27.9333 169.118 29C169.598 27.5733 170.065 26.1467 170.518 24.72C170.985 23.28 171.378 21.8267 171.698 20.36C171.711 20.2933 171.718 20.2333 171.718 20.18C171.731 20.1133 171.738 20.0467 171.738 19.98C171.738 19.86 171.691 19.7933 171.598 19.78C171.505 19.7533 171.411 19.74 171.318 19.74H170.618C170.511 19.74 170.425 19.7267 170.358 19.7C170.305 19.6733 170.278 19.5933 170.278 19.46C170.278 19.3933 170.305 19.34 170.358 19.3C170.411 19.2467 170.465 19.22 170.518 19.22C170.838 19.22 171.158 19.2267 171.478 19.24C171.798 19.24 172.118 19.24 172.438 19.24C172.678 19.24 172.911 19.2333 173.138 19.22C173.378 19.2067 173.618 19.2 173.858 19.2C173.938 19.2 174.005 19.2333 174.058 19.3C174.125 19.3533 174.158 19.42 174.158 19.5ZM92.7963 58.64C92.7963 58.92 92.683 59.06 92.4563 59.06C91.9763 59.06 91.4963 59.0533 91.0163 59.04C90.5497 59.0267 90.083 59.02 89.6163 59.02C89.163 59.02 88.7097 59.0267 88.2563 59.04C87.803 59.0667 87.3497 59.08 86.8963 59.08C86.763 59.08 86.6697 59.04 86.6163 58.96C86.563 58.8667 86.5363 58.7667 86.5363 58.66C86.5363 58.5533 86.5763 58.4733 86.6563 58.42C86.7497 58.3533 86.843 58.32 86.9363 58.32C87.0563 58.32 87.1763 58.3267 87.2963 58.34C87.4163 58.3533 87.5363 58.36 87.6563 58.36C87.683 58.36 87.7163 58.36 87.7563 58.36C87.7963 58.36 87.8297 58.36 87.8563 58.36C88.083 58.3333 88.203 58.2067 88.2163 57.98C88.243 57.74 88.2563 57.54 88.2563 57.38V46.98C87.4963 48.8733 86.723 50.76 85.9363 52.64C85.163 54.5067 84.403 56.3933 83.6563 58.3H82.0963C81.3363 56.3267 80.5497 54.3667 79.7363 52.42C78.9363 50.4733 78.1497 48.5133 77.3763 46.54C77.3763 48.3667 77.3897 50.1933 77.4163 52.02C77.443 53.8333 77.4563 55.6533 77.4563 57.48C77.4563 57.64 77.463 57.8333 77.4763 58.06C77.503 58.2733 77.6297 58.38 77.8563 58.38C78.0297 58.38 78.1963 58.3733 78.3563 58.36C78.5163 58.3467 78.683 58.34 78.8563 58.34C78.9497 58.34 79.0297 58.38 79.0963 58.46C79.163 58.5267 79.1963 58.6067 79.1963 58.7C79.1963 58.7667 79.1697 58.8467 79.1163 58.94C79.063 59.02 78.9963 59.06 78.9163 59.06C78.6763 59.06 78.4363 59.0533 78.1963 59.04C77.9563 59.0267 77.7163 59.02 77.4763 59.02C77.0497 59.02 76.6163 59.0267 76.1763 59.04C75.7363 59.0533 75.303 59.06 74.8763 59.06C74.743 59.06 74.6563 59.0267 74.6163 58.96C74.5763 58.88 74.5563 58.78 74.5563 58.66C74.5563 58.5533 74.5963 58.4733 74.6763 58.42C74.7697 58.3667 74.8563 58.34 74.9363 58.34C75.0563 58.34 75.1763 58.3467 75.2963 58.36C75.4297 58.3733 75.5563 58.38 75.6763 58.38C75.903 58.38 76.063 58.3533 76.1563 58.3C76.263 58.2333 76.3163 58.0733 76.3163 57.82C76.3163 55.7933 76.323 53.7667 76.3363 51.74C76.363 49.7 76.3763 47.6667 76.3763 45.64C76.3763 45.4267 76.3363 45.2733 76.2563 45.18C76.1897 45.0733 76.043 45.02 75.8163 45.02C75.683 45.02 75.5497 45.0267 75.4163 45.04C75.283 45.0533 75.1497 45.06 75.0163 45.06C74.9097 45.06 74.8163 45.02 74.7363 44.94C74.6563 44.86 74.6163 44.7667 74.6163 44.66C74.6163 44.4067 74.7497 44.28 75.0163 44.28C75.3363 44.28 75.6563 44.2867 75.9763 44.3C76.3097 44.3133 76.6363 44.32 76.9563 44.32C77.343 44.32 77.7297 44.32 78.1163 44.32C78.5163 44.32 78.9097 44.3 79.2963 44.26L83.7563 55.3C84.4763 53.4733 85.2297 51.66 86.0163 49.86C86.8163 48.0467 87.5163 46.2 88.1163 44.32C88.423 44.3333 88.7297 44.3467 89.0363 44.36C89.3563 44.36 89.6763 44.36 89.9963 44.36C90.4097 44.36 90.823 44.3467 91.2363 44.32C91.663 44.2933 92.083 44.28 92.4963 44.28C92.603 44.28 92.6763 44.3267 92.7163 44.42C92.7563 44.5 92.7763 44.58 92.7763 44.66C92.7763 44.74 92.7563 44.8333 92.7163 44.94C92.6763 45.0333 92.603 45.08 92.4963 45.08C92.3097 45.08 92.1163 45.08 91.9163 45.08C91.7297 45.0667 91.543 45.06 91.3563 45.06C91.223 45.06 91.123 45.12 91.0563 45.24C91.003 45.3467 90.9763 45.46 90.9763 45.58C90.9763 46.3533 90.9697 47.14 90.9563 47.94C90.9563 48.7267 90.9563 49.5133 90.9563 50.3C90.9563 51.4733 90.9563 52.6467 90.9563 53.82C90.9697 54.9933 90.9763 56.1667 90.9763 57.34C90.9763 57.46 90.983 57.6 90.9963 57.76C91.023 57.92 91.0697 58.0667 91.1363 58.2C91.2163 58.32 91.3363 58.38 91.4963 58.38C91.6563 58.38 91.8163 58.3733 91.9763 58.36C92.1363 58.3467 92.303 58.34 92.4763 58.34C92.5563 58.34 92.6297 58.3667 92.6963 58.42C92.763 58.4733 92.7963 58.5467 92.7963 58.64ZM99.8616 56.88C99.8216 56.2533 99.795 55.6267 99.7816 55C99.7683 54.36 99.7683 53.72 99.7816 53.08C99.235 53.1733 98.7016 53.3467 98.1816 53.6C97.675 53.84 97.255 54.1667 96.9216 54.58C96.5883 54.9933 96.4216 55.52 96.4216 56.16C96.4216 56.4267 96.455 56.7133 96.5216 57.02C96.6016 57.3267 96.735 57.5867 96.9216 57.8C97.1216 58 97.3883 58.1 97.7216 58.1C97.9616 58.1 98.215 58.0333 98.4816 57.9C98.7483 57.7533 99.0016 57.5867 99.2416 57.4C99.495 57.2133 99.7016 57.04 99.8616 56.88ZM103.982 58.06C103.982 58.1133 103.955 58.1733 103.902 58.24C103.862 58.3067 103.822 58.36 103.782 58.4C103.368 58.88 102.835 59.12 102.182 59.12C101.608 59.12 101.148 58.9933 100.802 58.74C100.455 58.4867 100.188 58.0933 100.002 57.56C99.575 58.0133 99.115 58.3733 98.6216 58.64C98.1416 58.9067 97.575 59.04 96.9216 59.04C96.455 59.04 95.9816 58.94 95.5016 58.74C95.035 58.5267 94.6416 58.2267 94.3216 57.84C94.015 57.4533 93.8616 57.0067 93.8616 56.5C93.8616 55.9933 93.9883 55.5467 94.2416 55.16C94.5083 54.76 94.8416 54.42 95.2416 54.14C95.6416 53.8467 96.0483 53.6067 96.4616 53.42C96.995 53.1933 97.5416 53.02 98.1016 52.9C98.6616 52.7667 99.2216 52.6333 99.7816 52.5V52.42C99.7816 52.18 99.775 51.86 99.7616 51.46C99.7616 51.0467 99.7216 50.64 99.6416 50.24C99.5616 49.8267 99.4283 49.48 99.2416 49.2C99.055 48.9067 98.7816 48.76 98.4216 48.76C98.0083 48.76 97.635 48.88 97.3016 49.12C96.9816 49.36 96.755 49.68 96.6216 50.08C96.595 50.2 96.575 50.32 96.5616 50.44C96.5483 50.5467 96.5283 50.66 96.5016 50.78C96.475 50.9933 96.3483 51.14 96.1216 51.22C95.9083 51.2867 95.7083 51.32 95.5216 51.32C95.295 51.32 95.075 51.2733 94.8616 51.18C94.6483 51.0733 94.5416 50.88 94.5416 50.6C94.5416 50.4933 94.555 50.4 94.5816 50.32C94.6216 50.2267 94.6616 50.1333 94.7016 50.04C94.915 49.5333 95.235 49.16 95.6616 48.92C96.0883 48.68 96.555 48.52 97.0616 48.44C97.5816 48.36 98.075 48.32 98.5416 48.32C99.635 48.32 100.535 48.6133 101.242 49.2C101.948 49.7867 102.302 50.6533 102.302 51.8V54.82C102.288 55.1933 102.282 55.58 102.282 55.98C102.295 56.3667 102.315 56.7533 102.342 57.14C102.368 57.3667 102.422 57.5867 102.502 57.8C102.582 58 102.762 58.1 103.042 58.1C103.228 58.1 103.382 58.06 103.502 57.98C103.635 57.9 103.755 57.86 103.862 57.86C103.915 57.86 103.948 57.8867 103.962 57.94C103.975 57.9933 103.982 58.0333 103.982 58.06ZM110.341 58.76C110.341 58.9733 110.234 59.08 110.021 59.08C109.634 59.08 109.241 59.06 108.841 59.02C108.441 58.9933 108.041 58.98 107.641 58.98C107.241 58.98 106.834 58.9933 106.421 59.02C106.021 59.06 105.621 59.08 105.221 59.08C105.127 59.08 105.061 59.0467 105.021 58.98C104.981 58.9 104.961 58.8267 104.961 58.76C104.961 58.5467 105.061 58.44 105.261 58.44C105.394 58.44 105.521 58.4467 105.641 58.46C105.761 58.4733 105.881 58.48 106.001 58.48C106.161 58.48 106.261 58.4267 106.301 58.32C106.354 58.2133 106.381 58.0933 106.381 57.96V50.02C106.381 49.8867 106.367 49.74 106.341 49.58C106.314 49.4067 106.207 49.32 106.021 49.32C105.847 49.32 105.667 49.3333 105.481 49.36C105.294 49.3867 105.107 49.4 104.921 49.4C104.841 49.4 104.761 49.38 104.681 49.34C104.614 49.3 104.581 49.2333 104.581 49.14C104.581 48.9667 104.667 48.8533 104.841 48.8C104.987 48.7733 105.141 48.7533 105.301 48.74C105.474 48.7133 105.634 48.6933 105.781 48.68C106.247 48.6133 106.701 48.5333 107.141 48.44C107.594 48.3333 108.047 48.2267 108.501 48.12C108.541 48.12 108.581 48.12 108.621 48.12C108.661 48.1067 108.694 48.1 108.721 48.1C108.921 48.1 109.021 48.18 109.021 48.34C109.021 49.94 109.014 51.5467 109.001 53.16C108.987 54.76 108.981 56.36 108.981 57.96C108.981 58.2 109.034 58.3533 109.141 58.42C109.247 58.4733 109.381 58.4933 109.541 58.48C109.714 58.4667 109.887 58.46 110.061 58.46C110.247 58.46 110.341 58.56 110.341 58.76ZM109.081 45.02C109.081 45.4333 108.927 45.7933 108.621 46.1C108.327 46.4067 107.967 46.56 107.541 46.56C107.127 46.56 106.767 46.4067 106.461 46.1C106.154 45.7933 106.001 45.4333 106.001 45.02C106.001 44.5933 106.154 44.2333 106.461 43.94C106.767 43.6333 107.127 43.48 107.541 43.48C107.967 43.48 108.327 43.6333 108.621 43.94C108.927 44.2333 109.081 44.5933 109.081 45.02ZM123.116 58.72C123.116 58.9333 123.009 59.04 122.796 59.04C122.409 59.04 122.016 59.0267 121.616 59C121.229 58.9867 120.842 58.98 120.456 58.98C120.082 58.98 119.702 58.9867 119.316 59C118.929 59.0267 118.542 59.04 118.156 59.04C118.062 59.04 117.996 59.0067 117.956 58.94C117.916 58.86 117.896 58.78 117.896 58.7C117.896 58.5 118.002 58.4 118.216 58.4C118.336 58.4 118.456 58.4067 118.576 58.42C118.696 58.42 118.816 58.42 118.936 58.42C119.136 58.42 119.236 58.3333 119.236 58.16C119.236 57.04 119.236 55.92 119.236 54.8C119.249 53.68 119.256 52.56 119.256 51.44C119.256 51.08 119.222 50.7067 119.156 50.32C119.102 49.9333 118.969 49.6067 118.756 49.34C118.556 49.0733 118.222 48.94 117.756 48.94C117.462 48.94 117.156 49.0467 116.836 49.26C116.529 49.4733 116.249 49.7267 115.996 50.02C115.756 50.3133 115.582 50.5867 115.476 50.84V57.92C115.476 58.04 115.489 58.1533 115.516 58.26C115.556 58.3667 115.649 58.42 115.796 58.42C115.902 58.42 116.009 58.42 116.116 58.42C116.236 58.4067 116.349 58.4 116.456 58.4C116.522 58.4 116.589 58.4267 116.656 58.48C116.722 58.5333 116.756 58.5933 116.756 58.66C116.756 58.9133 116.649 59.04 116.436 59.04C116.062 59.04 115.689 59.0267 115.316 59C114.956 58.96 114.582 58.94 114.196 58.94C113.796 58.94 113.389 58.96 112.976 59C112.576 59.0267 112.169 59.04 111.756 59.04C111.662 59.04 111.596 59.0067 111.556 58.94C111.516 58.86 111.496 58.78 111.496 58.7C111.496 58.5 111.602 58.4 111.816 58.4C111.936 58.4 112.056 58.4067 112.176 58.42C112.296 58.42 112.422 58.42 112.556 58.42C112.742 58.42 112.849 58.38 112.876 58.3C112.902 58.22 112.916 58.0933 112.916 57.92V55.02C112.916 54.2067 112.916 53.3933 112.916 52.58C112.916 51.7667 112.916 50.9533 112.916 50.14C112.916 49.9933 112.896 49.8333 112.856 49.66C112.816 49.4733 112.696 49.38 112.496 49.38C112.362 49.38 112.229 49.3867 112.096 49.4C111.976 49.4133 111.849 49.42 111.716 49.42C111.636 49.42 111.542 49.4067 111.436 49.38C111.342 49.34 111.296 49.2667 111.296 49.16C111.296 49.08 111.322 49.02 111.376 48.98C111.429 48.94 111.489 48.9133 111.556 48.9C111.689 48.86 111.829 48.8333 111.976 48.82C112.122 48.8067 112.262 48.7867 112.396 48.76C112.742 48.6933 113.082 48.62 113.416 48.54C113.762 48.4467 114.102 48.3533 114.436 48.26C114.489 48.2333 114.542 48.2133 114.596 48.2C114.649 48.1733 114.702 48.16 114.756 48.16C114.862 48.16 114.956 48.26 115.036 48.46C115.129 48.66 115.202 48.8733 115.256 49.1C115.322 49.3267 115.362 49.4867 115.376 49.58C115.762 49.2333 116.229 48.9267 116.776 48.66C117.322 48.38 117.862 48.24 118.396 48.24C119.289 48.24 119.982 48.3533 120.476 48.58C120.982 48.8067 121.342 49.1867 121.556 49.72C121.769 50.24 121.876 50.94 121.876 51.82C121.876 52.86 121.869 53.9 121.856 54.94C121.842 55.98 121.836 57.02 121.836 58.06C121.836 58.1933 121.876 58.2933 121.956 58.36C122.049 58.4133 122.162 58.44 122.296 58.44C122.389 58.44 122.476 58.4333 122.556 58.42C122.649 58.4067 122.742 58.4 122.836 58.4C123.022 58.4 123.116 58.5067 123.116 58.72ZM130.992 58.04C130.992 58.2267 130.892 58.3933 130.692 58.54C130.506 58.6733 130.266 58.7867 129.972 58.88C129.692 58.96 129.406 59.02 129.112 59.06C128.819 59.1 128.572 59.12 128.372 59.12C127.372 59.12 126.679 58.92 126.292 58.52C125.906 58.1067 125.712 57.4267 125.712 56.48C125.712 55.3333 125.719 54.1867 125.732 53.04C125.746 51.8933 125.752 50.7467 125.752 49.6H124.832C124.699 49.6 124.586 49.6467 124.492 49.74C124.399 49.82 124.312 49.86 124.232 49.86C124.099 49.86 124.032 49.7933 124.032 49.66C124.032 49.6067 124.059 49.5067 124.112 49.36C124.166 49.2133 124.206 49.12 124.232 49.08C124.272 49 124.312 48.9533 124.352 48.94C124.392 48.9267 124.452 48.92 124.532 48.92H125.772V46.78C126.106 46.5933 126.472 46.32 126.872 45.96C127.272 45.6 127.579 45.2667 127.792 44.96C127.832 44.8933 127.886 44.8267 127.952 44.76C128.019 44.68 128.099 44.64 128.192 44.64C128.406 44.64 128.506 44.7333 128.492 44.92L128.432 48.92H130.492C130.599 48.92 130.692 48.9467 130.772 49C130.866 49.04 130.912 49.12 130.912 49.24C130.912 49.4933 130.772 49.62 130.492 49.62H128.432L128.392 57.34C128.392 57.5533 128.432 57.76 128.512 57.96C128.606 58.1467 128.779 58.24 129.032 58.24C129.259 58.24 129.486 58.22 129.712 58.18C129.952 58.14 130.172 58.0733 130.372 57.98C130.439 57.9533 130.499 57.9267 130.552 57.9C130.619 57.86 130.686 57.84 130.752 57.84C130.912 57.84 130.992 57.9067 130.992 58.04ZM138.574 51.98C138.574 51.7133 138.56 51.3933 138.534 51.02C138.507 50.6467 138.44 50.2867 138.334 49.94C138.24 49.58 138.087 49.28 137.874 49.04C137.66 48.8 137.367 48.68 136.994 48.68C136.634 48.68 136.314 48.8 136.034 49.04C135.767 49.2667 135.54 49.56 135.354 49.92C135.167 50.2667 135.02 50.6333 134.914 51.02C134.807 51.3933 134.727 51.7267 134.674 52.02C134.9 52.02 135.12 52.0267 135.334 52.04C135.56 52.04 135.78 52.04 135.994 52.04C136.86 52.04 137.72 52.02 138.574 51.98ZM141.454 56.4C141.454 56.44 141.44 56.5 141.414 56.58C141.4 56.6467 141.38 56.7 141.354 56.74C141.26 56.9533 141.087 57.2 140.834 57.48C140.58 57.7467 140.354 57.9533 140.154 58.1C139.26 58.78 138.227 59.12 137.054 59.12C136 59.12 135.087 58.9 134.314 58.46C133.54 58.0067 132.947 57.38 132.534 56.58C132.12 55.78 131.914 54.86 131.914 53.82C131.914 52.78 132.114 51.84 132.514 51C132.927 50.1467 133.514 49.4733 134.274 48.98C135.047 48.4733 135.974 48.22 137.054 48.22C138.294 48.22 139.287 48.56 140.034 49.24C140.78 49.92 141.154 50.8933 141.154 52.16C141.154 52.5067 140.994 52.68 140.674 52.68C140.087 52.68 139.5 52.6733 138.914 52.66C138.327 52.6467 137.74 52.64 137.154 52.64C136.727 52.64 136.3 52.64 135.874 52.64C135.447 52.64 135.02 52.6467 134.594 52.66C134.554 53.06 134.534 53.4667 134.534 53.88C134.534 54.2533 134.58 54.6933 134.674 55.2C134.78 55.7067 134.934 56.2 135.134 56.68C135.347 57.16 135.62 57.56 135.954 57.88C136.287 58.1867 136.694 58.34 137.174 58.34C137.774 58.34 138.274 58.2533 138.674 58.08C139.087 57.9067 139.454 57.66 139.774 57.34C140.094 57.02 140.42 56.64 140.754 56.2C140.794 56.1467 140.834 56.1067 140.874 56.08C140.927 56.04 140.987 56.02 141.054 56.02C141.147 56.02 141.234 56.06 141.314 56.14C141.407 56.2067 141.454 56.2933 141.454 56.4ZM154.092 58.72C154.092 58.9333 153.985 59.04 153.772 59.04C153.385 59.04 152.992 59.0267 152.592 59C152.205 58.9867 151.819 58.98 151.432 58.98C151.059 58.98 150.679 58.9867 150.292 59C149.905 59.0267 149.519 59.04 149.132 59.04C149.039 59.04 148.972 59.0067 148.932 58.94C148.892 58.86 148.872 58.78 148.872 58.7C148.872 58.5 148.979 58.4 149.192 58.4C149.312 58.4 149.432 58.4067 149.552 58.42C149.672 58.42 149.792 58.42 149.912 58.42C150.112 58.42 150.212 58.3333 150.212 58.16C150.212 57.04 150.212 55.92 150.212 54.8C150.225 53.68 150.232 52.56 150.232 51.44C150.232 51.08 150.199 50.7067 150.132 50.32C150.079 49.9333 149.945 49.6067 149.732 49.34C149.532 49.0733 149.199 48.94 148.732 48.94C148.439 48.94 148.132 49.0467 147.812 49.26C147.505 49.4733 147.225 49.7267 146.972 50.02C146.732 50.3133 146.559 50.5867 146.452 50.84V57.92C146.452 58.04 146.465 58.1533 146.492 58.26C146.532 58.3667 146.625 58.42 146.772 58.42C146.879 58.42 146.985 58.42 147.092 58.42C147.212 58.4067 147.325 58.4 147.432 58.4C147.499 58.4 147.565 58.4267 147.632 58.48C147.699 58.5333 147.732 58.5933 147.732 58.66C147.732 58.9133 147.625 59.04 147.412 59.04C147.039 59.04 146.665 59.0267 146.292 59C145.932 58.96 145.559 58.94 145.172 58.94C144.772 58.94 144.365 58.96 143.952 59C143.552 59.0267 143.145 59.04 142.732 59.04C142.639 59.04 142.572 59.0067 142.532 58.94C142.492 58.86 142.472 58.78 142.472 58.7C142.472 58.5 142.579 58.4 142.792 58.4C142.912 58.4 143.032 58.4067 143.152 58.42C143.272 58.42 143.399 58.42 143.532 58.42C143.719 58.42 143.825 58.38 143.852 58.3C143.879 58.22 143.892 58.0933 143.892 57.92V55.02C143.892 54.2067 143.892 53.3933 143.892 52.58C143.892 51.7667 143.892 50.9533 143.892 50.14C143.892 49.9933 143.872 49.8333 143.832 49.66C143.792 49.4733 143.672 49.38 143.472 49.38C143.339 49.38 143.205 49.3867 143.072 49.4C142.952 49.4133 142.825 49.42 142.692 49.42C142.612 49.42 142.519 49.4067 142.412 49.38C142.319 49.34 142.272 49.2667 142.272 49.16C142.272 49.08 142.299 49.02 142.352 48.98C142.405 48.94 142.465 48.9133 142.532 48.9C142.665 48.86 142.805 48.8333 142.952 48.82C143.099 48.8067 143.239 48.7867 143.372 48.76C143.719 48.6933 144.059 48.62 144.392 48.54C144.739 48.4467 145.079 48.3533 145.412 48.26C145.465 48.2333 145.519 48.2133 145.572 48.2C145.625 48.1733 145.679 48.16 145.732 48.16C145.839 48.16 145.932 48.26 146.012 48.46C146.105 48.66 146.179 48.8733 146.232 49.1C146.299 49.3267 146.339 49.4867 146.352 49.58C146.739 49.2333 147.205 48.9267 147.752 48.66C148.299 48.38 148.839 48.24 149.372 48.24C150.265 48.24 150.959 48.3533 151.452 48.58C151.959 48.8067 152.319 49.1867 152.532 49.72C152.745 50.24 152.852 50.94 152.852 51.82C152.852 52.86 152.845 53.9 152.832 54.94C152.819 55.98 152.812 57.02 152.812 58.06C152.812 58.1933 152.852 58.2933 152.932 58.36C153.025 58.4133 153.139 58.44 153.272 58.44C153.365 58.44 153.452 58.4333 153.532 58.42C153.625 58.4067 153.719 58.4 153.812 58.4C153.999 58.4 154.092 58.5067 154.092 58.72ZM161.229 56.88C161.189 56.2533 161.162 55.6267 161.149 55C161.135 54.36 161.135 53.72 161.149 53.08C160.602 53.1733 160.069 53.3467 159.549 53.6C159.042 53.84 158.622 54.1667 158.289 54.58C157.955 54.9933 157.789 55.52 157.789 56.16C157.789 56.4267 157.822 56.7133 157.889 57.02C157.969 57.3267 158.102 57.5867 158.289 57.8C158.489 58 158.755 58.1 159.089 58.1C159.329 58.1 159.582 58.0333 159.849 57.9C160.115 57.7533 160.369 57.5867 160.609 57.4C160.862 57.2133 161.069 57.04 161.229 56.88ZM165.349 58.06C165.349 58.1133 165.322 58.1733 165.269 58.24C165.229 58.3067 165.189 58.36 165.149 58.4C164.735 58.88 164.202 59.12 163.549 59.12C162.975 59.12 162.515 58.9933 162.169 58.74C161.822 58.4867 161.555 58.0933 161.369 57.56C160.942 58.0133 160.482 58.3733 159.989 58.64C159.509 58.9067 158.942 59.04 158.289 59.04C157.822 59.04 157.349 58.94 156.869 58.74C156.402 58.5267 156.009 58.2267 155.689 57.84C155.382 57.4533 155.229 57.0067 155.229 56.5C155.229 55.9933 155.355 55.5467 155.609 55.16C155.875 54.76 156.209 54.42 156.609 54.14C157.009 53.8467 157.415 53.6067 157.829 53.42C158.362 53.1933 158.909 53.02 159.469 52.9C160.029 52.7667 160.589 52.6333 161.149 52.5V52.42C161.149 52.18 161.142 51.86 161.129 51.46C161.129 51.0467 161.089 50.64 161.009 50.24C160.929 49.8267 160.795 49.48 160.609 49.2C160.422 48.9067 160.149 48.76 159.789 48.76C159.375 48.76 159.002 48.88 158.669 49.12C158.349 49.36 158.122 49.68 157.989 50.08C157.962 50.2 157.942 50.32 157.929 50.44C157.915 50.5467 157.895 50.66 157.869 50.78C157.842 50.9933 157.715 51.14 157.489 51.22C157.275 51.2867 157.075 51.32 156.889 51.32C156.662 51.32 156.442 51.2733 156.229 51.18C156.015 51.0733 155.909 50.88 155.909 50.6C155.909 50.4933 155.922 50.4 155.949 50.32C155.989 50.2267 156.029 50.1333 156.069 50.04C156.282 49.5333 156.602 49.16 157.029 48.92C157.455 48.68 157.922 48.52 158.429 48.44C158.949 48.36 159.442 48.32 159.909 48.32C161.002 48.32 161.902 48.6133 162.609 49.2C163.315 49.7867 163.669 50.6533 163.669 51.8V54.82C163.655 55.1933 163.649 55.58 163.649 55.98C163.662 56.3667 163.682 56.7533 163.709 57.14C163.735 57.3667 163.789 57.5867 163.869 57.8C163.949 58 164.129 58.1 164.409 58.1C164.595 58.1 164.749 58.06 164.869 57.98C165.002 57.9 165.122 57.86 165.229 57.86C165.282 57.86 165.315 57.8867 165.329 57.94C165.342 57.9933 165.349 58.0333 165.349 58.06ZM177.608 58.72C177.608 58.9333 177.501 59.04 177.288 59.04C176.901 59.04 176.508 59.0267 176.108 59C175.721 58.9867 175.334 58.98 174.948 58.98C174.574 58.98 174.194 58.9867 173.808 59C173.421 59.0267 173.034 59.04 172.648 59.04C172.554 59.04 172.488 59.0067 172.448 58.94C172.408 58.86 172.388 58.78 172.388 58.7C172.388 58.5 172.494 58.4 172.708 58.4C172.828 58.4 172.948 58.4067 173.068 58.42C173.188 58.42 173.308 58.42 173.428 58.42C173.628 58.42 173.728 58.3333 173.728 58.16C173.728 57.04 173.728 55.92 173.728 54.8C173.741 53.68 173.748 52.56 173.748 51.44C173.748 51.08 173.714 50.7067 173.648 50.32C173.594 49.9333 173.461 49.6067 173.248 49.34C173.048 49.0733 172.714 48.94 172.248 48.94C171.954 48.94 171.648 49.0467 171.328 49.26C171.021 49.4733 170.741 49.7267 170.488 50.02C170.248 50.3133 170.074 50.5867 169.968 50.84V57.92C169.968 58.04 169.981 58.1533 170.008 58.26C170.048 58.3667 170.141 58.42 170.288 58.42C170.394 58.42 170.501 58.42 170.608 58.42C170.728 58.4067 170.841 58.4 170.948 58.4C171.014 58.4 171.081 58.4267 171.148 58.48C171.214 58.5333 171.248 58.5933 171.248 58.66C171.248 58.9133 171.141 59.04 170.928 59.04C170.554 59.04 170.181 59.0267 169.808 59C169.448 58.96 169.074 58.94 168.688 58.94C168.288 58.94 167.881 58.96 167.468 59C167.068 59.0267 166.661 59.04 166.248 59.04C166.154 59.04 166.088 59.0067 166.048 58.94C166.008 58.86 165.988 58.78 165.988 58.7C165.988 58.5 166.094 58.4 166.308 58.4C166.428 58.4 166.548 58.4067 166.668 58.42C166.788 58.42 166.914 58.42 167.048 58.42C167.234 58.42 167.341 58.38 167.368 58.3C167.394 58.22 167.408 58.0933 167.408 57.92V55.02C167.408 54.2067 167.408 53.3933 167.408 52.58C167.408 51.7667 167.408 50.9533 167.408 50.14C167.408 49.9933 167.388 49.8333 167.348 49.66C167.308 49.4733 167.188 49.38 166.988 49.38C166.854 49.38 166.721 49.3867 166.588 49.4C166.468 49.4133 166.341 49.42 166.208 49.42C166.128 49.42 166.034 49.4067 165.928 49.38C165.834 49.34 165.788 49.2667 165.788 49.16C165.788 49.08 165.814 49.02 165.868 48.98C165.921 48.94 165.981 48.9133 166.048 48.9C166.181 48.86 166.321 48.8333 166.468 48.82C166.614 48.8067 166.754 48.7867 166.888 48.76C167.234 48.6933 167.574 48.62 167.908 48.54C168.254 48.4467 168.594 48.3533 168.928 48.26C168.981 48.2333 169.034 48.2133 169.088 48.2C169.141 48.1733 169.194 48.16 169.248 48.16C169.354 48.16 169.448 48.26 169.528 48.46C169.621 48.66 169.694 48.8733 169.748 49.1C169.814 49.3267 169.854 49.4867 169.868 49.58C170.254 49.2333 170.721 48.9267 171.268 48.66C171.814 48.38 172.354 48.24 172.888 48.24C173.781 48.24 174.474 48.3533 174.968 48.58C175.474 48.8067 175.834 49.1867 176.048 49.72C176.261 50.24 176.368 50.94 176.368 51.82C176.368 52.86 176.361 53.9 176.348 54.94C176.334 55.98 176.328 57.02 176.328 58.06C176.328 58.1933 176.368 58.2933 176.448 58.36C176.541 58.4133 176.654 58.44 176.788 58.44C176.881 58.44 176.968 58.4333 177.048 58.42C177.141 58.4067 177.234 58.4 177.328 58.4C177.514 58.4 177.608 58.5067 177.608 58.72ZM188.644 56.34C188.644 56.3933 188.631 56.4533 188.604 56.52C188.578 56.5733 188.551 56.6267 188.524 56.68C188.244 57.2 187.864 57.64 187.384 58C186.918 58.3467 186.398 58.6133 185.824 58.8C185.251 58.9867 184.678 59.08 184.104 59.08C183.611 59.08 183.071 59 182.484 58.84C181.898 58.68 181.391 58.4533 180.964 58.16C180.271 57.6533 179.758 57.0267 179.424 56.28C179.104 55.5333 178.944 54.74 178.944 53.9C178.944 52.86 179.144 51.9133 179.544 51.06C179.944 50.1933 180.524 49.5 181.284 48.98C182.058 48.46 182.991 48.2 184.084 48.2C184.484 48.2 184.864 48.26 185.224 48.38C185.331 48.4067 185.498 48.48 185.724 48.6C185.964 48.7067 186.198 48.8067 186.424 48.9C186.651 48.9933 186.791 49.04 186.844 49.04C186.991 49.04 187.131 48.9867 187.264 48.88C187.411 48.76 187.524 48.7 187.604 48.7C187.684 48.7 187.724 48.7533 187.724 48.86C187.751 48.9933 187.764 49.14 187.764 49.3C187.764 49.4467 187.771 49.5933 187.784 49.74C187.798 50.06 187.818 50.38 187.844 50.7C187.884 51.02 187.904 51.34 187.904 51.66C187.904 51.8333 187.878 51.9867 187.824 52.12C187.771 52.2533 187.644 52.32 187.444 52.32C187.311 52.32 187.211 52.2867 187.144 52.22C187.078 52.1533 187.031 52.0667 187.004 51.96C186.844 51.48 186.678 51.0133 186.504 50.56C186.344 50.0933 186.071 49.6867 185.684 49.34C185.538 49.1933 185.324 49.06 185.044 48.94C184.778 48.8067 184.538 48.74 184.324 48.74C183.764 48.74 183.304 48.92 182.944 49.28C182.584 49.64 182.298 50.0867 182.084 50.62C181.871 51.1533 181.718 51.7067 181.624 52.28C181.544 52.84 181.504 53.3333 181.504 53.76C181.504 54.16 181.551 54.6267 181.644 55.16C181.738 55.68 181.891 56.1867 182.104 56.68C182.318 57.16 182.598 57.5667 182.944 57.9C183.291 58.22 183.724 58.38 184.244 58.38C184.738 58.38 185.238 58.2733 185.744 58.06C186.251 57.8467 186.678 57.5667 187.024 57.22C187.131 57.1133 187.238 57 187.344 56.88C187.464 56.76 187.571 56.6333 187.664 56.5C187.704 56.4333 187.744 56.3733 187.784 56.32C187.824 56.2533 187.871 56.1933 187.924 56.14C188.031 56.0333 188.138 55.98 188.244 55.98C188.351 55.98 188.444 56.0133 188.524 56.08C188.604 56.1467 188.644 56.2333 188.644 56.34ZM196.425 51.98C196.425 51.7133 196.412 51.3933 196.385 51.02C196.359 50.6467 196.292 50.2867 196.185 49.94C196.092 49.58 195.939 49.28 195.725 49.04C195.512 48.8 195.219 48.68 194.845 48.68C194.485 48.68 194.165 48.8 193.885 49.04C193.619 49.2667 193.392 49.56 193.205 49.92C193.019 50.2667 192.872 50.6333 192.765 51.02C192.659 51.3933 192.579 51.7267 192.525 52.02C192.752 52.02 192.972 52.0267 193.185 52.04C193.412 52.04 193.632 52.04 193.845 52.04C194.712 52.04 195.572 52.02 196.425 51.98ZM199.305 56.4C199.305 56.44 199.292 56.5 199.265 56.58C199.252 56.6467 199.232 56.7 199.205 56.74C199.112 56.9533 198.939 57.2 198.685 57.48C198.432 57.7467 198.205 57.9533 198.005 58.1C197.112 58.78 196.079 59.12 194.905 59.12C193.852 59.12 192.939 58.9 192.165 58.46C191.392 58.0067 190.799 57.38 190.385 56.58C189.972 55.78 189.765 54.86 189.765 53.82C189.765 52.78 189.965 51.84 190.365 51C190.779 50.1467 191.365 49.4733 192.125 48.98C192.899 48.4733 193.825 48.22 194.905 48.22C196.145 48.22 197.139 48.56 197.885 49.24C198.632 49.92 199.005 50.8933 199.005 52.16C199.005 52.5067 198.845 52.68 198.525 52.68C197.939 52.68 197.352 52.6733 196.765 52.66C196.179 52.6467 195.592 52.64 195.005 52.64C194.579 52.64 194.152 52.64 193.725 52.64C193.299 52.64 192.872 52.6467 192.445 52.66C192.405 53.06 192.385 53.4667 192.385 53.88C192.385 54.2533 192.432 54.6933 192.525 55.2C192.632 55.7067 192.785 56.2 192.985 56.68C193.199 57.16 193.472 57.56 193.805 57.88C194.139 58.1867 194.545 58.34 195.025 58.34C195.625 58.34 196.125 58.2533 196.525 58.08C196.939 57.9067 197.305 57.66 197.625 57.34C197.945 57.02 198.272 56.64 198.605 56.2C198.645 56.1467 198.685 56.1067 198.725 56.08C198.779 56.04 198.839 56.02 198.905 56.02C198.999 56.02 199.085 56.06 199.165 56.14C199.259 56.2067 199.305 56.2933 199.305 56.4Z" fill="white"/>
</svg>
